<?xml version="1.0"?>
<svg xmlns="http://www.w3.org/2000/svg" xmlns:xlink="http://www.w3.org/1999/xlink" xmlns:ev="http://www.w3.org/2001/xml-events" version="1.1" baseProfile="full" viewBox="18.5 18.5 378.833 313">
	<g>
		<g>
			<polygon points="70 164.167 71.25 169.167 68.75 169.167 " stroke="#000000" stroke-width="1.000000px" fill="#000000" />
			<path fill="none" d=" M174.167,230 L70,230 M70,230 L70,164.167" stroke="#000000" stroke-width="1.000000px" />
		</g>
		<g>
			<polygon points="190 180 191.25 185 188.75 185 " stroke="#000000" stroke-width="1.000000px" fill="#000000" />
			<path fill="none" d=" M184.167,220 L190,180" stroke="#000000" stroke-width="1.000000px" />
		</g>
		<g>
			<polygon points="180 170 175 171.25 175 168.75 " stroke="#000000" stroke-width="1.000000px" fill="#000000" />
			<path fill="none" d=" M160,170 L180,170" stroke="#000000" stroke-width="1.000000px" />
		</g>
		<g>
			<polygon points="80 154.167 85 152.917 85 155.417 " stroke="#000000" stroke-width="1.000000px" fill="#000000" />
			<path fill="none" d=" M140,162.5 L80,154.167" stroke="#000000" stroke-width="1.000000px" />
		</g>
		<g>
			<polygon points="70 144.167 68.75 139.167 71.25 139.167 " stroke="#000000" stroke-width="1.000000px" fill="#000000" />
			<path fill="none" d=" M167.5,80 L167.5,100 M167.5,100 L77.5,100 M77.5,100 L70,144.167" stroke="#000000" stroke-width="1.000000px" />
		</g>
		<g>
			<polygon points="190 160 188.75 155 191.25 155 " stroke="#000000" stroke-width="1.000000px" fill="#000000" />
			<path fill="none" d=" M182.5,80 L190,160" stroke="#000000" stroke-width="1.000000px" />
		</g>
		<g>
			<polygon points="335.833 30 330.833 31.25 330.833 28.75 " stroke="#000000" stroke-width="1.000000px" fill="#000000" />
			<path fill="none" d=" M175,60 L175,30 M175,30 L335.833,30" stroke="#000000" stroke-width="1.000000px" />
		</g>
		<g>
			<polygon points="320 300 325 298.75 325 301.25 " stroke="#000000" stroke-width="1.000000px" fill="#000000" />
			<path fill="none" d=" M385.833,120 L385.833,300 M385.833,300 L320,300" stroke="#000000" stroke-width="1.000000px" />
		</g>
		<g>
			<polygon points="355.833 30 360.833 28.75 360.833 31.25 " stroke="#000000" stroke-width="1.000000px" fill="#000000" />
			<path fill="none" d=" M385.833,100 L385.833,30 M385.833,30 L355.833,30" stroke="#000000" stroke-width="1.000000px" />
		</g>
		<g>
			<polygon points="310 204.167 308.75 199.167 311.25 199.167 " stroke="#000000" stroke-width="1.000000px" fill="#000000" />
			<path fill="none" d=" M302.5,80 L310,204.167" stroke="#000000" stroke-width="1.000000px" />
		</g>
		<g>
			<polygon points="335.833 70 330.833 71.25 330.833 68.75 " stroke="#000000" stroke-width="1.000000px" fill="#000000" />
			<path fill="none" d=" M312.5,70 L335.833,70" stroke="#000000" stroke-width="1.000000px" />
		</g>
		<g>
			<polygon points="310 204.167 308.75 199.167 311.25 199.167 " stroke="#000000" stroke-width="1.000000px" fill="#000000" />
			<path fill="none" d=" M335.833,110 L315.833,110 M315.833,110 L310,204.167" stroke="#000000" stroke-width="1.000000px" />
		</g>
		<g>
			<polygon points="345.833 80 347.083 85 344.583 85 " stroke="#000000" stroke-width="1.000000px" fill="#000000" />
			<path fill="none" d=" M345.833,100 L345.833,80" stroke="#000000" stroke-width="1.000000px" />
		</g>
		<g>
			<polygon points="300 214.167 295 215.417 295 212.917 " stroke="#000000" stroke-width="1.000000px" fill="#000000" />
			<path fill="none" d=" M240,222.5 L300,214.167" stroke="#000000" stroke-width="1.000000px" />
		</g>
		<g>
			<polygon points="230 180 231.25 185 228.75 185 " stroke="#000000" stroke-width="1.000000px" fill="#000000" />
			<path fill="none" d=" M230,220 L230,180" stroke="#000000" stroke-width="1.000000px" />
		</g>
		<g>
			<polygon points="230 290 228.75 285 231.25 285 " stroke="#000000" stroke-width="1.000000px" fill="#000000" />
			<path fill="none" d=" M230,240 L230,290" stroke="#000000" stroke-width="1.000000px" />
		</g>
		<g>
			<polygon points="220 300 215 301.25 215 298.75 " stroke="#000000" stroke-width="1.000000px" fill="#000000" />
			<path fill="none" d=" M150,280 L150,300 M150,300 L220,300" stroke="#000000" stroke-width="1.000000px" />
		</g>
		<g>
			<polygon points="160 270 165 268.75 165 271.25 " stroke="#000000" stroke-width="1.000000px" fill="#000000" />
			<path fill="none" d=" M184.167,240 L184.167,270 M184.167,270 L160,270" stroke="#000000" stroke-width="1.000000px" />
		</g>
		<g>
			<polygon points="220 230 215 231.25 215 228.75 " stroke="#000000" stroke-width="1.000000px" fill="#000000" />
			<path fill="none" d=" M194.167,230 L220,230" stroke="#000000" stroke-width="1.000000px" />
		</g>
		<g>
			<polygon points="150 260 148.75 255 151.25 255 " stroke="#000000" stroke-width="1.000000px" fill="#000000" />
			<path fill="none" d=" M150,180 L150,260" stroke="#000000" stroke-width="1.000000px" />
		</g>
		<g>
			<polygon points="140 270 135 271.25 135 268.75 " stroke="#000000" stroke-width="1.000000px" fill="#000000" />
			<path fill="none" d=" M165,70 L20,70 M20,70 L20,270 M20,270 L140,270" stroke="#000000" stroke-width="1.000000px" />
		</g>
		<g>
			<polygon points="292.5 70 287.5 71.25 287.5 68.75 " stroke="#000000" stroke-width="1.000000px" fill="#000000" />
			<path fill="none" d=" M185,70 L292.5,70" stroke="#000000" stroke-width="1.000000px" />
		</g>
		<g>
			<polygon points="355.833 110 360.833 108.75 360.833 111.25 " stroke="#000000" stroke-width="1.000000px" fill="#000000" />
			<path fill="none" d=" M375.833,110 L355.833,110" stroke="#000000" stroke-width="1.000000px" />
		</g>
		<g>
			<polygon points="230 310 231.25 315 228.75 315 " stroke="#000000" stroke-width="1.000000px" fill="#000000" />
			<path fill="none" d=" M60,154.167 L40,154.167 M40,154.167 L40,330 M40,330 L230,330 M230,330 L230,310" stroke="#000000" stroke-width="1.000000px" />
		</g>
		<g>
			<polygon points="230 160 228.75 155 231.25 155 " stroke="#000000" stroke-width="1.000000px" fill="#000000" />
			<path fill="none" d=" M80,154.167 L120,154.167 M120,154.167 L120,140 M120,140 L230,140 M230,140 L230,160" stroke="#000000" stroke-width="1.000000px" />
		</g>
		<g>
			<polygon points="300 214.167 295 215.417 295 212.917 " stroke="#000000" stroke-width="1.000000px" fill="#000000" />
			<path fill="none" d=" M80,145 L100,145 M100,145 L100,120 M100,120 L280,120 M280,120 L280,205 M280,205 L300,214.167" stroke="#000000" stroke-width="1.000000px" />
		</g>
		<g>
			<polygon points="220 170 215 171.25 215 168.75 " stroke="#000000" stroke-width="1.000000px" fill="#000000" />
			<path fill="none" d=" M200,170 L220,170" stroke="#000000" stroke-width="1.000000px" />
		</g>
		<g>
			<polygon points="300 214.167 295 215.417 295 212.917 " stroke="#000000" stroke-width="1.000000px" fill="#000000" />
			<path fill="none" d=" M197.5,180 L197.5,200 M197.5,200 L260,200 M260,200 L260,214.167 M260,214.167 L300,214.167" stroke="#000000" stroke-width="1.000000px" />
		</g>
		<g>
			<polygon points="345.833 60 344.583 55 347.083 55 " stroke="#000000" stroke-width="1.000000px" fill="#000000" />
			<path fill="none" d=" M345.833,40 L345.833,60" stroke="#000000" stroke-width="1.000000px" />
		</g>
		<g>
			<polygon points="310 224.167 311.25 229.167 308.75 229.167 " stroke="#000000" stroke-width="1.000000px" fill="#000000" />
			<path fill="none" d=" M310,290 L310,224.167" stroke="#000000" stroke-width="1.000000px" />
		</g>
		<g>
			<polygon points="240 300 245 298.75 245 301.25 " stroke="#000000" stroke-width="1.000000px" fill="#000000" />
			<path fill="none" d=" M300,300 L240,300" stroke="#000000" stroke-width="1.000000px" />
		</g>
	</g>
	<g>
		<rect x="174.16666666666671" y="220.00000000000006" width="20" height="20" fill="#FFFFFF" stroke-width="1.000000px" stroke="#000000" />
		<text x="184.16666666666671" y="230.00000000000006" text-anchor="middle" dominant-baseline="middle" font-family="Arial" font-size="10" fill="#000000"></text>
	</g>
	<g>
		<rect x="140.00000000000006" y="160.00000000000006" width="20" height="20" fill="#FFFFFF" stroke-width="1.000000px" stroke="#000000" />
		<text x="150.00000000000006" y="170.00000000000006" text-anchor="middle" dominant-baseline="middle" font-family="Arial" font-size="10" fill="#000000"></text>
	</g>
	<g>
		<rect x="165.00000000000006" y="60.000000000000028" width="20" height="20" fill="#FFFFFF" stroke-width="1.000000px" stroke="#000000" />
		<text x="175.00000000000006" y="70.000000000000028" text-anchor="middle" dominant-baseline="middle" font-family="Arial" font-size="10" fill="#000000"></text>
	</g>
	<g>
		<rect x="375.83333333333343" y="100.00000000000003" width="20" height="20" fill="#FFFFFF" stroke-width="1.000000px" stroke="#000000" />
		<text x="385.83333333333343" y="110.00000000000003" text-anchor="middle" dominant-baseline="middle" font-family="Arial" font-size="10" fill="#000000"></text>
	</g>
	<g>
		<rect x="292.50000000000011" y="60.000000000000028" width="20" height="20" fill="#FFFFFF" stroke-width="1.000000px" stroke="#000000" />
		<text x="302.50000000000011" y="70.000000000000028" text-anchor="middle" dominant-baseline="middle" font-family="Arial" font-size="10" fill="#000000"></text>
	</g>
	<g>
		<rect x="335.83333333333343" y="100.00000000000003" width="20" height="20" fill="#FFFFFF" stroke-width="1.000000px" stroke="#000000" />
		<text x="345.83333333333343" y="110.00000000000003" text-anchor="middle" dominant-baseline="middle" font-family="Arial" font-size="10" fill="#000000"></text>
	</g>
	<g>
		<rect x="220.00000000000006" y="220.00000000000006" width="20" height="20" fill="#FFFFFF" stroke-width="1.000000px" stroke="#000000" />
		<text x="230.00000000000006" y="230.00000000000006" text-anchor="middle" dominant-baseline="middle" font-family="Arial" font-size="10" fill="#000000"></text>
	</g>
	<g>
		<rect x="140.00000000000006" y="260.00000000000006" width="20" height="20" fill="#FFFFFF" stroke-width="1.000000px" stroke="#000000" />
		<text x="150.00000000000006" y="270.00000000000006" text-anchor="middle" dominant-baseline="middle" font-family="Arial" font-size="10" fill="#000000"></text>
	</g>
	<g>
		<rect x="220.00000000000006" y="290.00000000000006" width="20" height="20" fill="#FFFFFF" stroke-width="1.000000px" stroke="#000000" />
		<text x="230.00000000000006" y="300.00000000000006" text-anchor="middle" dominant-baseline="middle" font-family="Arial" font-size="10" fill="#000000"></text>
	</g>
	<g>
		<rect x="220.00000000000006" y="160.00000000000006" width="20" height="20" fill="#FFFFFF" stroke-width="1.000000px" stroke="#000000" />
		<text x="230.00000000000006" y="170.00000000000006" text-anchor="middle" dominant-baseline="middle" font-family="Arial" font-size="10" fill="#000000"></text>
	</g>
	<g>
		<rect x="300.00000000000011" y="204.16666666666671" width="20" height="20" fill="#FFFFFF" stroke-width="1.000000px" stroke="#000000" />
		<text x="310.00000000000011" y="214.16666666666671" text-anchor="middle" dominant-baseline="middle" font-family="Arial" font-size="10" fill="#000000"></text>
	</g>
	<g>
		<rect x="335.83333333333343" y="60.000000000000028" width="20" height="20" fill="#FFFFFF" stroke-width="1.000000px" stroke="#000000" />
		<text x="345.83333333333343" y="70.000000000000028" text-anchor="middle" dominant-baseline="middle" font-family="Arial" font-size="10" fill="#000000"></text>
	</g>
	<g>
		<rect x="300.00000000000011" y="290.00000000000006" width="20" height="20" fill="#FFFFFF" stroke-width="1.000000px" stroke="#000000" />
		<text x="310.00000000000011" y="300.00000000000006" text-anchor="middle" dominant-baseline="middle" font-family="Arial" font-size="10" fill="#000000"></text>
	</g>
	<g>
		<rect x="335.83333333333343" y="20" width="20" height="20" fill="#FFFFFF" stroke-width="1.000000px" stroke="#000000" />
		<text x="345.83333333333343" y="30" text-anchor="middle" dominant-baseline="middle" font-family="Arial" font-size="10" fill="#000000"></text>
	</g>
	<g>
		<rect x="180.00000000000006" y="160.00000000000006" width="20" height="20" fill="#FFFFFF" stroke-width="1.000000px" stroke="#000000" />
		<text x="190.00000000000006" y="170.00000000000006" text-anchor="middle" dominant-baseline="middle" font-family="Arial" font-size="10" fill="#000000"></text>
	</g>
	<g>
		<rect x="60.000000000000028" y="144.16666666666671" width="20" height="20" fill="#FFFFFF" stroke-width="1.000000px" stroke="#000000" />
		<text x="70.000000000000028" y="154.16666666666671" text-anchor="middle" dominant-baseline="middle" font-family="Arial" font-size="10" fill="#000000"></text>
	</g>
</svg>
