<?xml version="1.0"?>
<svg xmlns="http://www.w3.org/2000/svg" xmlns:xlink="http://www.w3.org/1999/xlink" xmlns:ev="http://www.w3.org/2001/xml-events" version="1.1" baseProfile="full" viewBox="18.5 18.5 263 263">
	<g>
		<g>
			<polygon points="110 40 111.25 45 108.75 45 " stroke="#000000" stroke-width="1.000000px" fill="#000000" />
			<path fill="none" d=" M110,100 L110,40" stroke="#000000" stroke-width="1.000000px" />
		</g>
		<g>
			<polygon points="200 190 205 188.75 205 191.25 " stroke="#000000" stroke-width="1.000000px" fill="#000000" />
			<path fill="none" d=" M260,190 L200,190" stroke="#000000" stroke-width="1.000000px" />
		</g>
		<g>
			<polygon points="190 240 191.25 245 188.75 245 " stroke="#000000" stroke-width="1.000000px" fill="#000000" />
			<path fill="none" d=" M190,260 L190,240" stroke="#000000" stroke-width="1.000000px" />
		</g>
		<g>
			<polygon points="160 30 165 28.75 165 31.25 " stroke="#000000" stroke-width="1.000000px" fill="#000000" />
			<path fill="none" d=" M180,30 L160,30" stroke="#000000" stroke-width="1.000000px" />
		</g>
		<g>
			<polygon points="180 70 175 71.25 175 68.75 " stroke="#000000" stroke-width="1.000000px" fill="#000000" />
			<path fill="none" d=" M160,70 L180,70" stroke="#000000" stroke-width="1.000000px" />
		</g>
		<g>
			<polygon points="30 40 31.25 45 28.75 45 " stroke="#000000" stroke-width="1.000000px" fill="#000000" />
			<path fill="none" d=" M30,220 L30,40" stroke="#000000" stroke-width="1.000000px" />
		</g>
		<g>
			<polygon points="200 150 205 148.75 205 151.25 " stroke="#000000" stroke-width="1.000000px" fill="#000000" />
			<path fill="none" d=" M260,150 L200,150" stroke="#000000" stroke-width="1.000000px" />
		</g>
		<g>
			<polygon points="60 30 55 31.25 55 28.75 " stroke="#000000" stroke-width="1.000000px" fill="#000000" />
			<path fill="none" d=" M40,30 L60,30" stroke="#000000" stroke-width="1.000000px" />
		</g>
		<g>
			<polygon points="140 30 135 31.25 135 28.75 " stroke="#000000" stroke-width="1.000000px" fill="#000000" />
			<path fill="none" d=" M120,30 L140,30" stroke="#000000" stroke-width="1.000000px" />
		</g>
		<g>
			<polygon points="70 120 71.25 125 68.75 125 " stroke="#000000" stroke-width="1.000000px" fill="#000000" />
			<path fill="none" d=" M70,180 L70,120" stroke="#000000" stroke-width="1.000000px" />
		</g>
		<g>
			<polygon points="270 200 271.25 205 268.75 205 " stroke="#000000" stroke-width="1.000000px" fill="#000000" />
			<path fill="none" d=" M270,260 L270,200" stroke="#000000" stroke-width="1.000000px" />
		</g>
		<g>
			<polygon points="80 190 85 188.75 85 191.25 " stroke="#000000" stroke-width="1.000000px" fill="#000000" />
			<path fill="none" d=" M180,190 L80,190" stroke="#000000" stroke-width="1.000000px" />
		</g>
		<g>
			<polygon points="80 230 85 228.75 85 231.25 " stroke="#000000" stroke-width="1.000000px" fill="#000000" />
			<path fill="none" d=" M180,230 L80,230" stroke="#000000" stroke-width="1.000000px" />
		</g>
		<g>
			<polygon points="70 240 71.25 245 68.75 245 " stroke="#000000" stroke-width="1.000000px" fill="#000000" />
			<path fill="none" d=" M70,260 L70,240" stroke="#000000" stroke-width="1.000000px" />
		</g>
		<g>
			<polygon points="30 240 31.25 245 28.75 245 " stroke="#000000" stroke-width="1.000000px" fill="#000000" />
			<path fill="none" d=" M30,260 L30,240" stroke="#000000" stroke-width="1.000000px" />
		</g>
		<g>
			<polygon points="270 160 271.25 165 268.75 165 " stroke="#000000" stroke-width="1.000000px" fill="#000000" />
			<path fill="none" d=" M270,180 L270,160" stroke="#000000" stroke-width="1.000000px" />
		</g>
		<g>
			<polygon points="40 270 45 268.75 45 271.25 " stroke="#000000" stroke-width="1.000000px" fill="#000000" />
			<path fill="none" d=" M60,270 L40,270" stroke="#000000" stroke-width="1.000000px" />
		</g>
		<g>
			<polygon points="190 40 191.25 45 188.75 45 " stroke="#000000" stroke-width="1.000000px" fill="#000000" />
			<path fill="none" d=" M190,60 L190,40" stroke="#000000" stroke-width="1.000000px" />
		</g>
		<g>
			<polygon points="120 110 125 108.75 125 111.25 " stroke="#000000" stroke-width="1.000000px" fill="#000000" />
			<path fill="none" d=" M180,110 L120,110" stroke="#000000" stroke-width="1.000000px" />
		</g>
		<g>
			<polygon points="190 160 191.25 165 188.75 165 " stroke="#000000" stroke-width="1.000000px" fill="#000000" />
			<path fill="none" d=" M190,180 L190,160" stroke="#000000" stroke-width="1.000000px" />
		</g>
		<g>
			<polygon points="260 270 255 271.25 255 268.75 " stroke="#000000" stroke-width="1.000000px" fill="#000000" />
			<path fill="none" d=" M240,270 L260,270" stroke="#000000" stroke-width="1.000000px" />
		</g>
		<g>
			<polygon points="190 120 191.25 125 188.75 125 " stroke="#000000" stroke-width="1.000000px" fill="#000000" />
			<path fill="none" d=" M190,140 L190,120" stroke="#000000" stroke-width="1.000000px" />
		</g>
		<g>
			<polygon points="70 200 71.25 205 68.75 205 " stroke="#000000" stroke-width="1.000000px" fill="#000000" />
			<path fill="none" d=" M70,220 L70,200" stroke="#000000" stroke-width="1.000000px" />
		</g>
		<g>
			<polygon points="190 200 191.25 205 188.75 205 " stroke="#000000" stroke-width="1.000000px" fill="#000000" />
			<path fill="none" d=" M190,220 L190,200" stroke="#000000" stroke-width="1.000000px" />
		</g>
		<g>
			<polygon points="100 30 95 31.25 95 28.75 " stroke="#000000" stroke-width="1.000000px" fill="#000000" />
			<path fill="none" d=" M80,30 L100,30" stroke="#000000" stroke-width="1.000000px" />
		</g>
		<g>
			<polygon points="100 110 95 111.25 95 108.75 " stroke="#000000" stroke-width="1.000000px" fill="#000000" />
			<path fill="none" d=" M80,110 L100,110" stroke="#000000" stroke-width="1.000000px" />
		</g>
		<g>
			<polygon points="200 110 205 108.75 205 111.25 " stroke="#000000" stroke-width="1.000000px" fill="#000000" />
			<path fill="none" d=" M260,110 L200,110" stroke="#000000" stroke-width="1.000000px" />
		</g>
		<g>
			<polygon points="270 120 271.25 125 268.75 125 " stroke="#000000" stroke-width="1.000000px" fill="#000000" />
			<path fill="none" d=" M270,140 L270,120" stroke="#000000" stroke-width="1.000000px" />
		</g>
		<g>
			<polygon points="70 40 71.25 45 68.75 45 " stroke="#000000" stroke-width="1.000000px" fill="#000000" />
			<path fill="none" d=" M70,100 L70,40" stroke="#000000" stroke-width="1.000000px" />
		</g>
		<g>
			<polygon points="200 270 205 268.75 205 271.25 " stroke="#000000" stroke-width="1.000000px" fill="#000000" />
			<path fill="none" d=" M220,270 L200,270" stroke="#000000" stroke-width="1.000000px" />
		</g>
		<g>
			<polygon points="40 230 45 228.75 45 231.25 " stroke="#000000" stroke-width="1.000000px" fill="#000000" />
			<path fill="none" d=" M60,230 L40,230" stroke="#000000" stroke-width="1.000000px" />
		</g>
		<g>
			<polygon points="190 80 191.25 85 188.75 85 " stroke="#000000" stroke-width="1.000000px" fill="#000000" />
			<path fill="none" d=" M190,100 L190,80" stroke="#000000" stroke-width="1.000000px" />
		</g>
		<g>
			<polygon points="80 270 85 268.75 85 271.25 " stroke="#000000" stroke-width="1.000000px" fill="#000000" />
			<path fill="none" d=" M180,270 L80,270" stroke="#000000" stroke-width="1.000000px" />
		</g>
	</g>
	<g>
		<rect x="180" y="20" width="20" height="20" fill="#FFFFFF" stroke-width="1.000000px" stroke="#000000" />
		<text x="190" y="30" text-anchor="middle" dominant-baseline="middle" font-family="Arial" font-size="10" fill="#000000"></text>
	</g>
	<g>
		<rect x="20" y="260" width="20" height="20" fill="#FFFFFF" stroke-width="1.000000px" stroke="#000000" />
		<text x="30" y="270" text-anchor="middle" dominant-baseline="middle" font-family="Arial" font-size="10" fill="#000000"></text>
	</g>
	<g>
		<rect x="60" y="260" width="20" height="20" fill="#FFFFFF" stroke-width="1.000000px" stroke="#000000" />
		<text x="70" y="270" text-anchor="middle" dominant-baseline="middle" font-family="Arial" font-size="10" fill="#000000"></text>
	</g>
	<g>
		<rect x="60" y="20" width="20" height="20" fill="#FFFFFF" stroke-width="1.000000px" stroke="#000000" />
		<text x="70" y="30" text-anchor="middle" dominant-baseline="middle" font-family="Arial" font-size="10" fill="#000000"></text>
	</g>
	<g>
		<rect x="100" y="20" width="20" height="20" fill="#FFFFFF" stroke-width="1.000000px" stroke="#000000" />
		<text x="110" y="30" text-anchor="middle" dominant-baseline="middle" font-family="Arial" font-size="10" fill="#000000"></text>
	</g>
	<g>
		<rect x="180" y="100" width="20" height="20" fill="#FFFFFF" stroke-width="1.000000px" stroke="#000000" />
		<text x="190" y="110" text-anchor="middle" dominant-baseline="middle" font-family="Arial" font-size="10" fill="#000000"></text>
	</g>
	<g>
		<rect x="60" y="100" width="20" height="20" fill="#FFFFFF" stroke-width="1.000000px" stroke="#000000" />
		<text x="70" y="110" text-anchor="middle" dominant-baseline="middle" font-family="Arial" font-size="10" fill="#000000"></text>
	</g>
	<g>
		<rect x="260" y="260" width="20" height="20" fill="#FFFFFF" stroke-width="1.000000px" stroke="#000000" />
		<text x="270" y="270" text-anchor="middle" dominant-baseline="middle" font-family="Arial" font-size="10" fill="#000000"></text>
	</g>
	<g>
		<rect x="140" y="20" width="20" height="20" fill="#FFFFFF" stroke-width="1.000000px" stroke="#000000" />
		<text x="150" y="30" text-anchor="middle" dominant-baseline="middle" font-family="Arial" font-size="10" fill="#000000"></text>
	</g>
	<g>
		<rect x="260" y="100" width="20" height="20" fill="#FFFFFF" stroke-width="1.000000px" stroke="#000000" />
		<text x="270" y="110" text-anchor="middle" dominant-baseline="middle" font-family="Arial" font-size="10" fill="#000000"></text>
	</g>
	<g>
		<rect x="180" y="60" width="20" height="20" fill="#FFFFFF" stroke-width="1.000000px" stroke="#000000" />
		<text x="190" y="70" text-anchor="middle" dominant-baseline="middle" font-family="Arial" font-size="10" fill="#000000"></text>
	</g>
	<g>
		<rect x="220" y="260" width="20" height="20" fill="#FFFFFF" stroke-width="1.000000px" stroke="#000000" />
		<text x="230" y="270" text-anchor="middle" dominant-baseline="middle" font-family="Arial" font-size="10" fill="#000000"></text>
	</g>
	<g>
		<rect x="60" y="180" width="20" height="20" fill="#FFFFFF" stroke-width="1.000000px" stroke="#000000" />
		<text x="70" y="190" text-anchor="middle" dominant-baseline="middle" font-family="Arial" font-size="10" fill="#000000"></text>
	</g>
	<g>
		<rect x="20" y="220" width="20" height="20" fill="#FFFFFF" stroke-width="1.000000px" stroke="#000000" />
		<text x="30" y="230" text-anchor="middle" dominant-baseline="middle" font-family="Arial" font-size="10" fill="#000000"></text>
	</g>
	<g>
		<rect x="180" y="260" width="20" height="20" fill="#FFFFFF" stroke-width="1.000000px" stroke="#000000" />
		<text x="190" y="270" text-anchor="middle" dominant-baseline="middle" font-family="Arial" font-size="10" fill="#000000"></text>
	</g>
	<g>
		<rect x="180" y="140" width="20" height="20" fill="#FFFFFF" stroke-width="1.000000px" stroke="#000000" />
		<text x="190" y="150" text-anchor="middle" dominant-baseline="middle" font-family="Arial" font-size="10" fill="#000000"></text>
	</g>
	<g>
		<rect x="260" y="140" width="20" height="20" fill="#FFFFFF" stroke-width="1.000000px" stroke="#000000" />
		<text x="270" y="150" text-anchor="middle" dominant-baseline="middle" font-family="Arial" font-size="10" fill="#000000"></text>
	</g>
	<g>
		<rect x="180" y="220" width="20" height="20" fill="#FFFFFF" stroke-width="1.000000px" stroke="#000000" />
		<text x="190" y="230" text-anchor="middle" dominant-baseline="middle" font-family="Arial" font-size="10" fill="#000000"></text>
	</g>
	<g>
		<rect x="60" y="220" width="20" height="20" fill="#FFFFFF" stroke-width="1.000000px" stroke="#000000" />
		<text x="70" y="230" text-anchor="middle" dominant-baseline="middle" font-family="Arial" font-size="10" fill="#000000"></text>
	</g>
	<g>
		<rect x="100" y="100" width="20" height="20" fill="#FFFFFF" stroke-width="1.000000px" stroke="#000000" />
		<text x="110" y="110" text-anchor="middle" dominant-baseline="middle" font-family="Arial" font-size="10" fill="#000000"></text>
	</g>
	<g>
		<rect x="20" y="20" width="20" height="20" fill="#FFFFFF" stroke-width="1.000000px" stroke="#000000" />
		<text x="30" y="30" text-anchor="middle" dominant-baseline="middle" font-family="Arial" font-size="10" fill="#000000"></text>
	</g>
	<g>
		<rect x="140" y="60" width="20" height="20" fill="#FFFFFF" stroke-width="1.000000px" stroke="#000000" />
		<text x="150" y="70" text-anchor="middle" dominant-baseline="middle" font-family="Arial" font-size="10" fill="#000000"></text>
	</g>
	<g>
		<rect x="260" y="180" width="20" height="20" fill="#FFFFFF" stroke-width="1.000000px" stroke="#000000" />
		<text x="270" y="190" text-anchor="middle" dominant-baseline="middle" font-family="Arial" font-size="10" fill="#000000"></text>
	</g>
	<g>
		<rect x="180" y="180" width="20" height="20" fill="#FFFFFF" stroke-width="1.000000px" stroke="#000000" />
		<text x="190" y="190" text-anchor="middle" dominant-baseline="middle" font-family="Arial" font-size="10" fill="#000000"></text>
	</g>
</svg>
