<?xml version="1.0"?>
<svg xmlns="http://www.w3.org/2000/svg" xmlns:xlink="http://www.w3.org/1999/xlink" xmlns:ev="http://www.w3.org/2001/xml-events" version="1.1" baseProfile="full" viewBox="18.5 18.5 2356.71 1991.23">
	<g>
		<g>
			<polygon points="40 1978.23 45 1976.98 45 1979.48 " stroke="#000000" stroke-width="1.000000px" fill="#000000" />
			<path fill="none" d=" M60,1978.23 L40,1978.23" stroke="#000000" stroke-width="1.000000px" />
		</g>
		<g>
			<polygon points="2120.16 464.516 2118.91 459.516 2121.41 459.516 " stroke="#000000" stroke-width="1.000000px" fill="#000000" />
			<path fill="none" d=" M2172.9,263.548 L2172.9,384.516 M2172.9,384.516 L2115.81,384.516 M2115.81,384.516 L2120.16,464.516" stroke="#000000" stroke-width="1.000000px" />
		</g>
		<g>
			<polygon points="2120.16 464.516 2118.91 459.516 2121.41 459.516 " stroke="#000000" stroke-width="1.000000px" fill="#000000" />
			<path fill="none" d=" M2111.13,281.774 L2120.16,464.516" stroke="#000000" stroke-width="1.000000px" />
		</g>
		<g>
			<polygon points="2171.94 253.548 2166.94 254.798 2166.94 252.298 " stroke="#000000" stroke-width="1.000000px" fill="#000000" />
			<path fill="none" d=" M2111.94,262.742 L2171.94,253.548" stroke="#000000" stroke-width="1.000000px" />
		</g>
		<g>
			<polygon points="2120.16 464.516 2118.91 459.516 2121.41 459.516 " stroke="#000000" stroke-width="1.000000px" fill="#000000" />
			<path fill="none" d=" M2274.68,191.774 L2313.71,191.774 M2313.71,191.774 L2313.71,444.516 M2313.71,444.516 L2129.35,444.516 M2129.35,444.516 L2120.16,464.516" stroke="#000000" stroke-width="1.000000px" />
		</g>
		<g>
			<polygon points="2191.94 253.548 2196.94 252.298 2196.94 254.798 " stroke="#000000" stroke-width="1.000000px" fill="#000000" />
			<path fill="none" d=" M2255.48,201.774 L2255.48,221.774 M2255.48,221.774 L2213.71,221.774 M2213.71,221.774 L2213.71,244.516 M2213.71,244.516 L2191.94,253.548" stroke="#000000" stroke-width="1.000000px" />
		</g>
		<g>
			<polygon points="2101.94 261.774 2100.69 256.774 2103.19 256.774 " stroke="#000000" stroke-width="1.000000px" fill="#000000" />
			<path fill="none" d=" M2254.68,200.968 L2101.94,200.968 M2101.94,200.968 L2101.94,261.774" stroke="#000000" stroke-width="1.000000px" />
		</g>
		<g>
			<polygon points="2120.16 464.516 2118.91 459.516 2121.41 459.516 " stroke="#000000" stroke-width="1.000000px" fill="#000000" />
			<path fill="none" d=" M2193.71,383.548 L2193.71,404.516 M2193.71,404.516 L2120.32,404.516 M2120.32,404.516 L2120.16,464.516" stroke="#000000" stroke-width="1.000000px" />
		</g>
		<g>
			<polygon points="2181.94 263.548 2183.19 268.548 2180.69 268.548 " stroke="#000000" stroke-width="1.000000px" fill="#000000" />
			<path fill="none" d=" M2193.71,363.548 L2193.71,283.548 M2193.71,283.548 L2191.13,283.548 M2191.13,283.548 L2181.94,263.548" stroke="#000000" stroke-width="1.000000px" />
		</g>
		<g>
			<polygon points="2111.94 271.774 2116.94 270.524 2116.94 273.024 " stroke="#000000" stroke-width="1.000000px" fill="#000000" />
			<path fill="none" d=" M2192.9,364.516 L2131.94,364.516 M2131.94,364.516 L2131.94,280.968 M2131.94,280.968 L2111.94,271.774" stroke="#000000" stroke-width="1.000000px" />
		</g>
		<g>
			<polygon points="2264.68 201.774 2265.93 206.774 2263.43 206.774 " stroke="#000000" stroke-width="1.000000px" fill="#000000" />
			<path fill="none" d=" M2211.94,363.548 L2211.94,343.548 M2211.94,343.548 L2273.71,343.548 M2273.71,343.548 L2264.68,201.774" stroke="#000000" stroke-width="1.000000px" />
		</g>
		<g>
			<polygon points="2120.16 464.516 2118.91 459.516 2121.41 459.516 " stroke="#000000" stroke-width="1.000000px" fill="#000000" />
			<path fill="none" d=" M2252.9,281.774 L2252.9,323.548 M2252.9,323.548 L2293.71,323.548 M2293.71,323.548 L2293.71,424.516 M2293.71,424.516 L2124.84,424.516 M2124.84,424.516 L2120.16,464.516" stroke="#000000" stroke-width="1.000000px" />
		</g>
		<g>
			<polygon points="2191.94 253.548 2196.94 252.298 2196.94 254.798 " stroke="#000000" stroke-width="1.000000px" fill="#000000" />
			<path fill="none" d=" M2233.71,262.742 L2191.94,253.548" stroke="#000000" stroke-width="1.000000px" />
		</g>
		<g>
			<polygon points="2111.94 271.774 2116.94 270.524 2116.94 273.024 " stroke="#000000" stroke-width="1.000000px" fill="#000000" />
			<path fill="none" d=" M2233.71,280.968 L2213.71,280.968 M2213.71,280.968 L2213.71,303.548 M2213.71,303.548 L2151.94,303.548 M2151.94,303.548 L2151.94,276.29 M2151.94,276.29 L2111.94,271.774" stroke="#000000" stroke-width="1.000000px" />
		</g>
		<g>
			<polygon points="2264.68 201.774 2265.93 206.774 2263.43 206.774 " stroke="#000000" stroke-width="1.000000px" fill="#000000" />
			<path fill="none" d=" M2252.9,261.774 L2252.9,241.774 M2252.9,241.774 L2260.16,241.774 M2260.16,241.774 L2264.68,201.774" stroke="#000000" stroke-width="1.000000px" />
		</g>
		<g>
			<polygon points="2202.9 363.548 2201.65 358.548 2204.15 358.548 " stroke="#000000" stroke-width="1.000000px" fill="#000000" />
			<path fill="none" d=" M2234.68,281.774 L2234.68,323.548 M2234.68,323.548 L2207.26,323.548 M2207.26,323.548 L2202.9,363.548" stroke="#000000" stroke-width="1.000000px" />
		</g>
		<g>
			<polygon points="70 1968.23 68.75 1963.23 71.25 1963.23 " stroke="#000000" stroke-width="1.000000px" fill="#000000" />
			<path fill="none" d=" M1980.48,80.9677 L1980.48,20 M1980.48,20 L70,20 M70,20 L70,1968.23" stroke="#000000" stroke-width="1.000000px" />
		</g>
		<g>
			<polygon points="2130.16 474.516 2135.16 473.266 2135.16 475.766 " stroke="#000000" stroke-width="1.000000px" fill="#000000" />
			<path fill="none" d=" M1990.48,90.9677 L2373.71,90.9677 M2373.71,90.9677 L2373.71,474.516 M2373.71,474.516 L2130.16,474.516" stroke="#000000" stroke-width="1.000000px" />
		</g>
		<g>
			<polygon points="2181.94 243.548 2180.69 238.548 2183.19 238.548 " stroke="#000000" stroke-width="1.000000px" fill="#000000" />
			<path fill="none" d=" M1980.81,100.968 L1980.81,180.968 M1980.81,180.968 L2172.9,180.968 M2172.9,180.968 L2181.94,243.548" stroke="#000000" stroke-width="1.000000px" />
		</g>
		<g>
			<polygon points="2091.94 271.774 2086.94 273.024 2086.94 270.524 " stroke="#000000" stroke-width="1.000000px" fill="#000000" />
			<path fill="none" d=" M1977.74,100.968 L1977.74,200.968 M1977.74,200.968 L2071.94,200.968 M2071.94,200.968 L2071.94,262.742 M2071.94,262.742 L2091.94,271.774" stroke="#000000" stroke-width="1.000000px" />
		</g>
		<g>
			<polygon points="2264.68 181.774 2263.43 176.774 2265.93 176.774 " stroke="#000000" stroke-width="1.000000px" fill="#000000" />
			<path fill="none" d=" M1983.87,100.968 L1983.87,160.968 M1983.87,160.968 L2255.48,160.968 M2255.48,160.968 L2264.68,181.774" stroke="#000000" stroke-width="1.000000px" />
		</g>
		<g>
			<polygon points="2212.9 373.548 2217.9 372.298 2217.9 374.798 " stroke="#000000" stroke-width="1.000000px" fill="#000000" />
			<path fill="none" d=" M1990,100.968 L1990,120.968 M1990,120.968 L2353.71,120.968 M2353.71,120.968 L2353.71,373.548 M2353.71,373.548 L2212.9,373.548" stroke="#000000" stroke-width="1.000000px" />
		</g>
		<g>
			<polygon points="2253.71 271.774 2258.71 270.524 2258.71 273.024 " stroke="#000000" stroke-width="1.000000px" fill="#000000" />
			<path fill="none" d=" M1986.94,100.968 L1986.94,140.968 M1986.94,140.968 L2333.71,140.968 M2333.71,140.968 L2333.71,262.742 M2333.71,262.742 L2253.71,271.774" stroke="#000000" stroke-width="1.000000px" />
		</g>
		<g>
			<polygon points="80 1978.23 85 1976.98 85 1979.48 " stroke="#000000" stroke-width="1.000000px" fill="#000000" />
			<path fill="none" d=" M1930.48,299.194 L1930.48,40 M1930.48,40 L100,40 M100,40 L100,1968.55 M100,1968.55 L80,1978.23" stroke="#000000" stroke-width="1.000000px" />
		</g>
		<g>
			<polygon points="1980.48 100.968 1981.73 105.968 1979.23 105.968 " stroke="#000000" stroke-width="1.000000px" fill="#000000" />
			<path fill="none" d=" M1949.68,309.194 L1971.13,309.194 M1971.13,309.194 L1980.48,100.968" stroke="#000000" stroke-width="1.000000px" />
		</g>
		<g>
			<polygon points="80 1978.23 85 1976.98 85 1979.48 " stroke="#000000" stroke-width="1.000000px" fill="#000000" />
			<path fill="none" d=" M1477.42,1918.23 L1477.42,1987.9 M1477.42,1987.9 L80,1978.23" stroke="#000000" stroke-width="1.000000px" />
		</g>
		<g>
			<polygon points="1980.48 100.968 1981.73 105.968 1979.23 105.968 " stroke="#000000" stroke-width="1.000000px" fill="#000000" />
			<path fill="none" d=" M1487.1,1898.23 L1487.1,1878.23 M1487.1,1878.23 L2011.13,1878.23 M2011.13,1878.23 L2011.13,220.968 M2011.13,220.968 L1974.19,220.968 M1974.19,220.968 L1980.48,100.968" stroke="#000000" stroke-width="1.000000px" />
		</g>
		<g>
			<polygon points="1939.68 319.194 1940.93 324.194 1938.43 324.194 " stroke="#000000" stroke-width="1.000000px" fill="#000000" />
			<path fill="none" d=" M1482.42,1898.23 L1482.42,1838.23 M1482.42,1838.23 L1930.48,1838.23 M1930.48,1838.23 L1939.68,319.194" stroke="#000000" stroke-width="1.000000px" />
		</g>
		<g>
			<polygon points="70 1988.23 71.25 1993.23 68.75 1993.23 " stroke="#000000" stroke-width="1.000000px" fill="#000000" />
			<path fill="none" d=" M2061.13,1913.87 L2061.13,2008.23 M2061.13,2008.23 L70,2008.23 M70,2008.23 L70,1988.23" stroke="#000000" stroke-width="1.000000px" />
		</g>
		<g>
			<polygon points="2110.16 474.516 2105.16 475.766 2105.16 473.266 " stroke="#000000" stroke-width="1.000000px" fill="#000000" />
			<path fill="none" d=" M2061.13,1893.87 L2061.13,474.516 M2061.13,474.516 L2110.16,474.516" stroke="#000000" stroke-width="1.000000px" />
		</g>
		<g>
			<polygon points="1939.68 319.194 1940.93 324.194 1938.43 324.194 " stroke="#000000" stroke-width="1.000000px" fill="#000000" />
			<path fill="none" d=" M2051.13,1894.68 L2031.13,1894.68 M2031.13,1894.68 L2031.13,1838.23 M2031.13,1838.23 L1948.71,1838.23 M1948.71,1838.23 L1939.68,319.194" stroke="#000000" stroke-width="1.000000px" />
		</g>
		<g>
			<polygon points="1487.42 1908.23 1492.42 1906.98 1492.42 1909.48 " stroke="#000000" stroke-width="1.000000px" fill="#000000" />
			<path fill="none" d=" M2051.13,1908.23 L1487.42,1908.23" stroke="#000000" stroke-width="1.000000px" />
		</g>
		<g>
			<polygon points="80 1978.23 85 1976.98 85 1979.48 " stroke="#000000" stroke-width="1.000000px" fill="#000000" />
			<path fill="none" d=" M379.355,300 L140,300 M140,300 L140,1971.77 M140,1971.77 L80,1978.23" stroke="#000000" stroke-width="1.000000px" />
		</g>
		<g>
			<polygon points="1970.48 90.9677 1965.48 92.2177 1965.48 89.7177 " stroke="#000000" stroke-width="1.000000px" fill="#000000" />
			<path fill="none" d=" M384.839,280.968 L384.839,100 M384.839,100 L1970.48,90.9677" stroke="#000000" stroke-width="1.000000px" />
		</g>
		<g>
			<polygon points="1929.68 309.194 1924.68 310.444 1924.68 307.944 " stroke="#000000" stroke-width="1.000000px" fill="#000000" />
			<path fill="none" d=" M399.355,300 L1929.68,309.194" stroke="#000000" stroke-width="1.000000px" />
		</g>
		<g>
			<polygon points="1477.42 1898.23 1476.17 1893.23 1478.67 1893.23 " stroke="#000000" stroke-width="1.000000px" fill="#000000" />
			<path fill="none" d=" M394.194,280.968 L394.194,260.968 M394.194,260.968 L1991.13,260.968 M1991.13,260.968 L1991.13,1858.23 M1991.13,1858.23 L1484.68,1858.23 M1484.68,1858.23 L1477.42,1898.23" stroke="#000000" stroke-width="1.000000px" />
		</g>
		<g>
			<polygon points="2061.13 1893.87 2059.88 1888.87 2062.38 1888.87 " stroke="#000000" stroke-width="1.000000px" fill="#000000" />
			<path fill="none" d=" M389.516,280.968 L389.516,240.968 M389.516,240.968 L2051.94,240.968 M2051.94,240.968 L2061.13,1893.87" stroke="#000000" stroke-width="1.000000px" />
		</g>
		<g>
			<polygon points="80 1978.23 85 1976.98 85 1979.48 " stroke="#000000" stroke-width="1.000000px" fill="#000000" />
			<path fill="none" d=" M370.161,79.1935 L120,79.1935 M120,79.1935 L120,1970.16 M120,1970.16 L80,1978.23" stroke="#000000" stroke-width="1.000000px" />
		</g>
		<g>
			<polygon points="1970.48 90.9677 1965.48 92.2177 1965.48 89.7177 " stroke="#000000" stroke-width="1.000000px" fill="#000000" />
			<path fill="none" d=" M390.161,79.1935 L1950.48,79.1935 M1950.48,79.1935 L1950.48,81.7742 M1950.48,81.7742 L1970.48,90.9677" stroke="#000000" stroke-width="1.000000px" />
		</g>
		<g>
			<polygon points="389.355 280.968 388.105 275.968 390.605 275.968 " stroke="#000000" stroke-width="1.000000px" fill="#000000" />
			<path fill="none" d=" M380.161,80 L389.355,280.968" stroke="#000000" stroke-width="1.000000px" />
		</g>
		<g>
			<polygon points="1929.68 309.194 1924.68 310.444 1924.68 307.944 " stroke="#000000" stroke-width="1.000000px" fill="#000000" />
			<path fill="none" d=" M1587.9,999.355 L1708.71,999.355 M1708.71,999.355 L1708.71,784.516 M1708.71,784.516 L1909.68,784.516 M1909.68,784.516 L1909.68,318.226 M1909.68,318.226 L1929.68,309.194" stroke="#000000" stroke-width="1.000000px" />
		</g>
		<g>
			<polygon points="1477.42 1898.23 1476.17 1893.23 1478.67 1893.23 " stroke="#000000" stroke-width="1.000000px" fill="#000000" />
			<path fill="none" d=" M1568.71,1004.52 L1568.71,1044.52 M1568.71,1044.52 L1473.06,1044.52 M1473.06,1044.52 L1477.42,1898.23" stroke="#000000" stroke-width="1.000000px" />
		</g>
		<g>
			<polygon points="80 1978.23 85 1976.98 85 1979.48 " stroke="#000000" stroke-width="1.000000px" fill="#000000" />
			<path fill="none" d=" M460,722.742 L240,722.742 M240,722.742 L240,1979.68 M240,1979.68 L80,1978.23" stroke="#000000" stroke-width="1.000000px" />
		</g>
		<g>
			<polygon points="1477.42 1898.23 1476.17 1893.23 1478.67 1893.23 " stroke="#000000" stroke-width="1.000000px" fill="#000000" />
			<path fill="none" d=" M480,718.065 L1467.9,718.065 M1467.9,718.065 L1477.42,1898.23" stroke="#000000" stroke-width="1.000000px" />
		</g>
		<g>
			<polygon points="389.355 300.968 390.605 305.968 388.105 305.968 " stroke="#000000" stroke-width="1.000000px" fill="#000000" />
			<path fill="none" d=" M460.806,703.548 L460.806,643.548 M460.806,643.548 L400,643.548 M400,643.548 L400,400.968 M400,400.968 L384.194,400.968 M384.194,400.968 L389.355,300.968" stroke="#000000" stroke-width="1.000000px" />
		</g>
		<g>
			<polygon points="80 1978.23 85 1976.98 85 1979.48 " stroke="#000000" stroke-width="1.000000px" fill="#000000" />
			<path fill="none" d=" M1387.42,1947.1 L1367.42,1947.1 M1367.42,1947.1 L1367.42,1986.13 M1367.42,1986.13 L80,1978.23" stroke="#000000" stroke-width="1.000000px" />
		</g>
		<g>
			<polygon points="2120.16 484.516 2121.41 489.516 2118.91 489.516 " stroke="#000000" stroke-width="1.000000px" fill="#000000" />
			<path fill="none" d=" M1397.42,1948.06 L1397.42,1968.06 M1397.42,1968.06 L2120.16,1968.06 M2120.16,1968.06 L2120.16,484.516" stroke="#000000" stroke-width="1.000000px" />
		</g>
		<g>
			<polygon points="1467.42 1908.23 1462.42 1909.48 1462.42 1906.98 " stroke="#000000" stroke-width="1.000000px" fill="#000000" />
			<path fill="none" d=" M1407.42,1933.55 L1447.42,1933.55 M1447.42,1933.55 L1447.42,1917.42 M1447.42,1917.42 L1467.42,1908.23" stroke="#000000" stroke-width="1.000000px" />
		</g>
		<g>
			<polygon points="2051.13 1903.87 2046.13 1905.12 2046.13 1902.62 " stroke="#000000" stroke-width="1.000000px" fill="#000000" />
			<path fill="none" d=" M1407.42,1938.23 L2031.13,1938.23 M2031.13,1938.23 L2031.13,1912.9 M2031.13,1912.9 L2051.13,1903.87" stroke="#000000" stroke-width="1.000000px" />
		</g>
		<g>
			<polygon points="1567.9 994.516 1562.9 995.766 1562.9 993.266 " stroke="#000000" stroke-width="1.000000px" fill="#000000" />
			<path fill="none" d=" M1407.42,1928.87 L1427.42,1928.87 M1427.42,1928.87 L1427.42,1003.55 M1427.42,1003.55 L1567.9,994.516" stroke="#000000" stroke-width="1.000000px" />
		</g>
		<g>
			<polygon points="480 713.548 485 712.298 485 714.798 " stroke="#000000" stroke-width="1.000000px" fill="#000000" />
			<path fill="none" d=" M1407.1,1928.06 L1407.1,722.742 M1407.1,722.742 L480,713.548" stroke="#000000" stroke-width="1.000000px" />
		</g>
		<g>
			<polygon points="1567.9 994.516 1562.9 995.766 1562.9 993.266 " stroke="#000000" stroke-width="1.000000px" fill="#000000" />
			<path fill="none" d=" M1266.13,1822.9 L1367.1,1822.9 M1367.1,1822.9 L1367.1,983.548 M1367.1,983.548 L1527.9,983.548 M1527.9,983.548 L1527.9,990 M1527.9,990 L1567.9,994.516" stroke="#000000" stroke-width="1.000000px" />
		</g>
		<g>
			<polygon points="470 723.548 471.25 728.548 468.75 728.548 " stroke="#000000" stroke-width="1.000000px" fill="#000000" />
			<path fill="none" d=" M1266.13,1818.23 L1347.1,1818.23 M1347.1,1818.23 L1347.1,743.548 M1347.1,743.548 L479.677,743.548 M479.677,743.548 L470,723.548" stroke="#000000" stroke-width="1.000000px" />
		</g>
		<g>
			<polygon points="1397.42 1928.06 1396.17 1923.06 1398.67 1923.06 " stroke="#000000" stroke-width="1.000000px" fill="#000000" />
			<path fill="none" d=" M1265.32,1828.06 L1265.32,1848.06 M1265.32,1848.06 L1394.84,1848.06 M1394.84,1848.06 L1397.42,1928.06" stroke="#000000" stroke-width="1.000000px" />
		</g>
		<g>
			<polygon points="80 1978.23 85 1976.98 85 1979.48 " stroke="#000000" stroke-width="1.000000px" fill="#000000" />
			<path fill="none" d=" M461.129,1495.32 L280,1495.32 M280,1495.32 L280,1982.9 M280,1982.9 L80,1978.23" stroke="#000000" stroke-width="1.000000px" />
		</g>
		<g>
			<polygon points="389.355 300.968 390.605 305.968 388.105 305.968 " stroke="#000000" stroke-width="1.000000px" fill="#000000" />
			<path fill="none" d=" M461.129,1490.65 L380,1490.65 M380,1490.65 L389.355,300.968" stroke="#000000" stroke-width="1.000000px" />
		</g>
		<g>
			<polygon points="470 723.548 471.25 728.548 468.75 728.548 " stroke="#000000" stroke-width="1.000000px" fill="#000000" />
			<path fill="none" d=" M462.097,1476.13 L462.097,1456.13 M462.097,1456.13 L460.323,1456.13 M460.323,1456.13 L470,723.548" stroke="#000000" stroke-width="1.000000px" />
		</g>
		<g>
			<polygon points="1387.42 1938.06 1382.42 1939.31 1382.42 1936.81 " stroke="#000000" stroke-width="1.000000px" fill="#000000" />
			<path fill="none" d=" M471.129,1496.13 L471.129,1933.06 M471.129,1933.06 L1387.42,1938.06" stroke="#000000" stroke-width="1.000000px" />
		</g>
		<g>
			<polygon points="1246.13 1818.06 1241.13 1819.31 1241.13 1816.81 " stroke="#000000" stroke-width="1.000000px" fill="#000000" />
			<path fill="none" d=" M481.129,1495.65 L501.129,1495.65 M501.129,1495.65 L501.129,1827.1 M501.129,1827.1 L1246.13,1818.06" stroke="#000000" stroke-width="1.000000px" />
		</g>
		<g>
			<polygon points="470 723.548 471.25 728.548 468.75 728.548 " stroke="#000000" stroke-width="1.000000px" fill="#000000" />
			<path fill="none" d=" M822.097,1507.1 L822.097,1527.1 M822.097,1527.1 L863.871,1527.1 M863.871,1527.1 L863.871,1667.1 M863.871,1667.1 L1327.1,1667.1 M1327.1,1667.1 L1327.1,763.548 M1327.1,763.548 L477.903,763.548 M477.903,763.548 L470,723.548" stroke="#000000" stroke-width="1.000000px" />
		</g>
		<g>
			<polygon points="1397.42 1928.06 1396.17 1923.06 1398.67 1923.06 " stroke="#000000" stroke-width="1.000000px" fill="#000000" />
			<path fill="none" d=" M812.742,1507.1 L812.742,1567.1 M812.742,1567.1 L823.871,1567.1 M823.871,1567.1 L823.871,1888.06 M823.871,1888.06 L1390.16,1888.06 M1390.16,1888.06 L1397.42,1928.06" stroke="#000000" stroke-width="1.000000px" />
		</g>
		<g>
			<polygon points="1246.13 1818.06 1241.13 1819.31 1241.13 1816.81 " stroke="#000000" stroke-width="1.000000px" fill="#000000" />
			<path fill="none" d=" M817.419,1507.1 L817.419,1547.1 M817.419,1547.1 L843.871,1547.1 M843.871,1547.1 L843.871,1707.1 M843.871,1707.1 L1206.13,1707.1 M1206.13,1707.1 L1206.13,1813.55 M1206.13,1813.55 L1246.13,1818.06" stroke="#000000" stroke-width="1.000000px" />
		</g>
		<g>
			<polygon points="481.129 1486.13 486.129 1484.88 486.129 1487.38 " stroke="#000000" stroke-width="1.000000px" fill="#000000" />
			<path fill="none" d=" M803.871,1507.1 L803.871,1767.1 M803.871,1767.1 L561.129,1767.1 M561.129,1767.1 L561.129,1487.74 M561.129,1487.74 L481.129,1486.13" stroke="#000000" stroke-width="1.000000px" />
		</g>
		<g>
			<polygon points="470 723.548 471.25 728.548 468.75 728.548 " stroke="#000000" stroke-width="1.000000px" fill="#000000" />
			<path fill="none" d=" M943.871,1308.06 L943.871,1225.32 M943.871,1225.32 L945.645,1225.32 M945.645,1225.32 L945.645,823.548 M945.645,823.548 L472.903,823.548 M472.903,823.548 L470,723.548" stroke="#000000" stroke-width="1.000000px" />
		</g>
		<g>
			<polygon points="481.129 1486.13 486.129 1484.88 486.129 1487.38 " stroke="#000000" stroke-width="1.000000px" fill="#000000" />
			<path fill="none" d=" M924.677,1313.55 L884.677,1313.55 M884.677,1313.55 L884.677,1286.29 M884.677,1286.29 L562.097,1286.29 M562.097,1286.29 L562.097,1479.35 M562.097,1479.35 L481.129,1486.13" stroke="#000000" stroke-width="1.000000px" />
		</g>
		<g>
			<polygon points="822.903 1497.1 827.903 1495.85 827.903 1498.35 " stroke="#000000" stroke-width="1.000000px" fill="#000000" />
			<path fill="none" d=" M943.871,1328.06 L943.871,1348.06 M943.871,1348.06 L945.645,1348.06 M945.645,1348.06 L945.645,1492.74 M945.645,1492.74 L822.903,1497.1" stroke="#000000" stroke-width="1.000000px" />
		</g>
		<g>
			<polygon points="470 723.548 471.25 728.548 468.75 728.548 " stroke="#000000" stroke-width="1.000000px" fill="#000000" />
			<path fill="none" d=" M689.355,1105.32 L689.355,883.548 M689.355,883.548 L467.742,883.548 M467.742,883.548 L470,723.548" stroke="#000000" stroke-width="1.000000px" />
		</g>
		<g>
			<polygon points="1387.42 1938.06 1382.42 1939.31 1382.42 1936.81 " stroke="#000000" stroke-width="1.000000px" fill="#000000" />
			<path fill="none" d=" M683.871,1106.29 L622.097,1106.29 M622.097,1106.29 L622.097,1104.52 M622.097,1104.52 L320,1104.52 M320,1104.52 L320,1942.42 M320,1942.42 L1387.42,1938.06" stroke="#000000" stroke-width="1.000000px" />
		</g>
		<g>
			<polygon points="1266.13 1818.06 1271.13 1816.81 1271.13 1819.31 " stroke="#000000" stroke-width="1.000000px" fill="#000000" />
			<path fill="none" d=" M703.871,1106.29 L723.871,1106.29 M723.871,1106.29 L723.871,883.548 M723.871,883.548 L1307.1,883.548 M1307.1,883.548 L1307.1,1813.55 M1307.1,1813.55 L1266.13,1818.06" stroke="#000000" stroke-width="1.000000px" />
		</g>
		<g>
			<polygon points="471.129 1476.13 469.879 1471.13 472.379 1471.13 " stroke="#000000" stroke-width="1.000000px" fill="#000000" />
			<path fill="none" d=" M683.871,1124.52 L480.323,1124.52 M480.323,1124.52 L471.129,1476.13" stroke="#000000" stroke-width="1.000000px" />
		</g>
		<g>
			<polygon points="812.903 1487.1 811.653 1482.1 814.153 1482.1 " stroke="#000000" stroke-width="1.000000px" fill="#000000" />
			<path fill="none" d=" M689.355,1125.32 L689.355,1165.32 M689.355,1165.32 L642.097,1165.32 M642.097,1165.32 L642.097,1347.1 M642.097,1347.1 L803.871,1347.1 M803.871,1347.1 L812.903,1487.1" stroke="#000000" stroke-width="1.000000px" />
		</g>
		<g>
			<polygon points="934.677 1308.06 933.427 1303.06 935.927 1303.06 " stroke="#000000" stroke-width="1.000000px" fill="#000000" />
			<path fill="none" d=" M703.871,1124.52 L925.645,1124.52 M925.645,1124.52 L934.677,1308.06" stroke="#000000" stroke-width="1.000000px" />
		</g>
		<g>
			<polygon points="1567.9 994.516 1562.9 995.766 1562.9 993.266 " stroke="#000000" stroke-width="1.000000px" fill="#000000" />
			<path fill="none" d=" M1005.65,945.323 L1025.65,945.323 M1025.65,945.323 L1025.65,943.548 M1025.65,943.548 L1547.9,943.548 M1547.9,943.548 L1547.9,985.323 M1547.9,985.323 L1567.9,994.516" stroke="#000000" stroke-width="1.000000px" />
		</g>
		<g>
			<polygon points="470 723.548 471.25 728.548 468.75 728.548 " stroke="#000000" stroke-width="1.000000px" fill="#000000" />
			<path fill="none" d=" M986.452,944.516 L986.452,803.548 M986.452,803.548 L474.516,803.548 M474.516,803.548 L470,723.548" stroke="#000000" stroke-width="1.000000px" />
		</g>
		<g>
			<polygon points="1397.42 1928.06 1396.17 1923.06 1398.67 1923.06 " stroke="#000000" stroke-width="1.000000px" fill="#000000" />
			<path fill="none" d=" M1005.65,963.548 L1387.1,963.548 M1387.1,963.548 L1387.1,1003.55 M1387.1,1003.55 L1397.26,1003.55 M1397.26,1003.55 L1397.42,1928.06" stroke="#000000" stroke-width="1.000000px" />
		</g>
		<g>
			<polygon points="1256.13 1808.06 1254.88 1803.06 1257.38 1803.06 " stroke="#000000" stroke-width="1.000000px" fill="#000000" />
			<path fill="none" d=" M1005,964.516 L1005,984.516 M1005,984.516 L1247.1,984.516 M1247.1,984.516 L1256.13,1808.06" stroke="#000000" stroke-width="1.000000px" />
		</g>
		<g>
			<polygon points="481.129 1486.13 486.129 1484.88 486.129 1487.38 " stroke="#000000" stroke-width="1.000000px" fill="#000000" />
			<path fill="none" d=" M1001.94,964.516 L1001.94,1004.52 M1001.94,1004.52 L1166.13,1004.52 M1166.13,1004.52 L1166.13,1807.1 M1166.13,1807.1 L521.129,1807.1 M521.129,1807.1 L521.129,1493.06 M521.129,1493.06 L481.129,1486.13" stroke="#000000" stroke-width="1.000000px" />
		</g>
		<g>
			<polygon points="822.903 1497.1 827.903 1495.85 827.903 1498.35 " stroke="#000000" stroke-width="1.000000px" fill="#000000" />
			<path fill="none" d=" M992.742,964.516 L992.742,1064.52 M992.742,1064.52 L1046.13,1064.52 M1046.13,1064.52 L1046.13,1497.42 M1046.13,1497.42 L822.903,1497.1" stroke="#000000" stroke-width="1.000000px" />
		</g>
		<g>
			<polygon points="944.677 1318.06 949.677 1316.81 949.677 1319.31 " stroke="#000000" stroke-width="1.000000px" fill="#000000" />
			<path fill="none" d=" M986.129,964.516 L986.129,1308.87 M986.129,1308.87 L944.677,1318.06" stroke="#000000" stroke-width="1.000000px" />
		</g>
		<g>
			<polygon points="703.871 1115.32 708.871 1114.07 708.871 1116.57 " stroke="#000000" stroke-width="1.000000px" fill="#000000" />
			<path fill="none" d=" M985.645,945.323 L965.645,945.323 M965.645,945.323 L965.645,943.548 M965.645,943.548 L903.871,943.548 M903.871,943.548 L903.871,903.548 M903.871,903.548 L743.871,903.548 M743.871,903.548 L743.871,1110.97 M743.871,1110.97 L703.871,1115.32" stroke="#000000" stroke-width="1.000000px" />
		</g>
		<g>
			<polygon points="470 723.548 471.25 728.548 468.75 728.548 " stroke="#000000" stroke-width="1.000000px" fill="#000000" />
			<path fill="none" d=" M721.129,1206.29 L721.129,1145.32 M721.129,1145.32 L783.871,1145.32 M783.871,1145.32 L783.871,863.548 M783.871,863.548 L469.516,863.548 M469.516,863.548 L470,723.548" stroke="#000000" stroke-width="1.000000px" />
		</g>
		<g>
			<polygon points="1387.42 1938.06 1382.42 1939.31 1382.42 1936.81 " stroke="#000000" stroke-width="1.000000px" fill="#000000" />
			<path fill="none" d=" M702.097,1207.1 L682.097,1207.1 M682.097,1207.1 L682.097,1205.32 M682.097,1205.32 L340,1205.32 M340,1205.32 L340,1937.74 M340,1937.74 L1387.42,1938.06" stroke="#000000" stroke-width="1.000000px" />
		</g>
		<g>
			<polygon points="1266.13 1818.06 1271.13 1816.81 1271.13 1819.31 " stroke="#000000" stroke-width="1.000000px" fill="#000000" />
			<path fill="none" d=" M722.097,1207.1 L803.871,1207.1 M803.871,1207.1 L803.871,923.548 M803.871,923.548 L1287.1,923.548 M1287.1,923.548 L1287.1,1808.87 M1287.1,1808.87 L1266.13,1818.06" stroke="#000000" stroke-width="1.000000px" />
		</g>
		<g>
			<polygon points="481.129 1486.13 486.129 1484.88 486.129 1487.38 " stroke="#000000" stroke-width="1.000000px" fill="#000000" />
			<path fill="none" d=" M702.097,1225.32 L542.097,1225.32 M542.097,1225.32 L542.097,1476.61 M542.097,1476.61 L481.129,1486.13" stroke="#000000" stroke-width="1.000000px" />
		</g>
		<g>
			<polygon points="812.903 1487.1 811.653 1482.1 814.153 1482.1 " stroke="#000000" stroke-width="1.000000px" fill="#000000" />
			<path fill="none" d=" M716.452,1226.29 L716.452,1266.29 M716.452,1266.29 L823.871,1266.29 M823.871,1266.29 L823.871,1467.1 M823.871,1467.1 L822.097,1467.1 M822.097,1467.1 L812.903,1487.1" stroke="#000000" stroke-width="1.000000px" />
		</g>
		<g>
			<polygon points="924.677 1318.06 919.677 1319.31 919.677 1316.81 " stroke="#000000" stroke-width="1.000000px" fill="#000000" />
			<path fill="none" d=" M722.097,1225.32 L904.677,1225.32 M904.677,1225.32 L904.677,1308.87 M904.677,1308.87 L924.677,1318.06" stroke="#000000" stroke-width="1.000000px" />
		</g>
		<g>
			<polygon points="693.871 1125.32 695.121 1130.32 692.621 1130.32 " stroke="#000000" stroke-width="1.000000px" fill="#000000" />
			<path fill="none" d=" M702.903,1206.29 L693.871,1125.32" stroke="#000000" stroke-width="1.000000px" />
		</g>
		<g>
			<polygon points="985.645 954.516 980.645 955.766 980.645 953.266 " stroke="#000000" stroke-width="1.000000px" fill="#000000" />
			<path fill="none" d=" M722.097,1211.77 L823.871,1211.77 M823.871,1211.77 L823.871,963.548 M823.871,963.548 L985.645,954.516" stroke="#000000" stroke-width="1.000000px" />
		</g>
		<g>
			<polygon points="80 1978.23 85 1976.98 85 1979.48 " stroke="#000000" stroke-width="1.000000px" fill="#000000" />
			<path fill="none" d=" M602.097,1521.94 L602.097,1913.06 M602.097,1913.06 L300,1913.06 M300,1913.06 L300,1984.52 M300,1984.52 L80,1978.23" stroke="#000000" stroke-width="1.000000px" />
		</g>
		<g>
			<polygon points="470 723.548 471.25 728.548 468.75 728.548 " stroke="#000000" stroke-width="1.000000px" fill="#000000" />
			<path fill="none" d=" M602.097,1501.94 L602.097,903.548 M602.097,903.548 L466.129,903.548 M466.129,903.548 L470,723.548" stroke="#000000" stroke-width="1.000000px" />
		</g>
		<g>
			<polygon points="1397.42 1928.06 1396.17 1923.06 1398.67 1923.06 " stroke="#000000" stroke-width="1.000000px" fill="#000000" />
			<path fill="none" d=" M610.968,1521.94 L610.968,1747.1 M610.968,1747.1 L783.871,1747.1 M783.871,1747.1 L783.871,1908.06 M783.871,1908.06 L1387.9,1908.06 M1387.9,1908.06 L1397.42,1928.06" stroke="#000000" stroke-width="1.000000px" />
		</g>
		<g>
			<polygon points="1246.13 1818.06 1241.13 1819.31 1241.13 1816.81 " stroke="#000000" stroke-width="1.000000px" fill="#000000" />
			<path fill="none" d=" M615.645,1521.94 L615.645,1727.1 M615.645,1727.1 L1186.13,1727.1 M1186.13,1727.1 L1186.13,1818.23 M1186.13,1818.23 L1246.13,1818.06" stroke="#000000" stroke-width="1.000000px" />
		</g>
		<g>
			<polygon points="481.129 1486.13 486.129 1484.88 486.129 1487.38 " stroke="#000000" stroke-width="1.000000px" fill="#000000" />
			<path fill="none" d=" M601.129,1502.9 L581.129,1502.9 M581.129,1502.9 L581.129,1485 M581.129,1485 L481.129,1486.13" stroke="#000000" stroke-width="1.000000px" />
		</g>
		<g>
			<polygon points="802.903 1497.1 797.903 1498.35 797.903 1495.85 " stroke="#000000" stroke-width="1.000000px" fill="#000000" />
			<path fill="none" d=" M621.129,1506.29 L802.903,1497.1" stroke="#000000" stroke-width="1.000000px" />
		</g>
		<g>
			<polygon points="934.677 1328.06 935.927 1333.06 933.427 1333.06 " stroke="#000000" stroke-width="1.000000px" fill="#000000" />
			<path fill="none" d=" M621.129,1502.58 L641.129,1502.58 M641.129,1502.58 L641.129,1447.1 M641.129,1447.1 L925.645,1447.1 M925.645,1447.1 L934.677,1328.06" stroke="#000000" stroke-width="1.000000px" />
		</g>
		<g>
			<polygon points="693.871 1125.32 695.121 1130.32 692.621 1130.32 " stroke="#000000" stroke-width="1.000000px" fill="#000000" />
			<path fill="none" d=" M610.968,1501.94 L610.968,1387.1 M610.968,1387.1 L622.097,1387.1 M622.097,1387.1 L622.097,1145.32 M622.097,1145.32 L684.677,1145.32 M684.677,1145.32 L693.871,1125.32" stroke="#000000" stroke-width="1.000000px" />
		</g>
		<g>
			<polygon points="995.645 964.516 996.895 969.516 994.395 969.516 " stroke="#000000" stroke-width="1.000000px" fill="#000000" />
			<path fill="none" d=" M620.323,1521.94 L620.323,1647.1 M620.323,1647.1 L1146.13,1647.1 M1146.13,1647.1 L1146.13,1024.52 M1146.13,1024.52 L998.871,1024.52 M998.871,1024.52 L995.645,964.516" stroke="#000000" stroke-width="1.000000px" />
		</g>
		<g>
			<polygon points="712.097 1226.29 713.347 1231.29 710.847 1231.29 " stroke="#000000" stroke-width="1.000000px" fill="#000000" />
			<path fill="none" d=" M615.645,1501.94 L615.645,1407.1 M615.645,1407.1 L711.774,1407.1 M711.774,1407.1 L712.097,1226.29" stroke="#000000" stroke-width="1.000000px" />
		</g>
		<g>
			<polygon points="470 723.548 471.25 728.548 468.75 728.548 " stroke="#000000" stroke-width="1.000000px" fill="#000000" />
			<path fill="none" d=" M1106.13,1492.74 L1267.1,1492.74 M1267.1,1492.74 L1267.1,783.548 M1267.1,783.548 L476.29,783.548 M476.29,783.548 L470,723.548" stroke="#000000" stroke-width="1.000000px" />
		</g>
		<g>
			<polygon points="1397.42 1928.06 1396.17 1923.06 1398.67 1923.06 " stroke="#000000" stroke-width="1.000000px" fill="#000000" />
			<path fill="none" d=" M1096.45,1502.74 L1096.45,1627.1 M1096.45,1627.1 L1085.32,1627.1 M1085.32,1627.1 L1085.32,1868.06 M1085.32,1868.06 L1392.58,1868.06 M1392.58,1868.06 L1397.42,1928.06" stroke="#000000" stroke-width="1.000000px" />
		</g>
		<g>
			<polygon points="1246.13 1818.06 1241.13 1819.31 1241.13 1816.81 " stroke="#000000" stroke-width="1.000000px" fill="#000000" />
			<path fill="none" d=" M1105.32,1502.74 L1105.32,1687.1 M1105.32,1687.1 L1226.13,1687.1 M1226.13,1687.1 L1226.13,1808.87 M1226.13,1808.87 L1246.13,1818.06" stroke="#000000" stroke-width="1.000000px" />
		</g>
		<g>
			<polygon points="481.129 1486.13 486.129 1484.88 486.129 1487.38 " stroke="#000000" stroke-width="1.000000px" fill="#000000" />
			<path fill="none" d=" M1091.77,1502.74 L1091.77,1607.1 M1091.77,1607.1 L1065.32,1607.1 M1065.32,1607.1 L1065.32,1787.1 M1065.32,1787.1 L541.129,1787.1 M541.129,1787.1 L541.129,1490.32 M541.129,1490.32 L481.129,1486.13" stroke="#000000" stroke-width="1.000000px" />
		</g>
		<g>
			<polygon points="822.903 1497.1 827.903 1495.85 827.903 1498.35 " stroke="#000000" stroke-width="1.000000px" fill="#000000" />
			<path fill="none" d=" M1086.13,1502.1 L822.903,1497.1" stroke="#000000" stroke-width="1.000000px" />
		</g>
		<g>
			<polygon points="944.677 1318.06 949.677 1316.81 949.677 1319.31 " stroke="#000000" stroke-width="1.000000px" fill="#000000" />
			<path fill="none" d=" M1087.1,1482.74 L1087.1,1318.06 M1087.1,1318.06 L944.677,1318.06" stroke="#000000" stroke-width="1.000000px" />
		</g>
		<g>
			<polygon points="703.871 1115.32 708.871 1114.07 708.871 1116.57 " stroke="#000000" stroke-width="1.000000px" fill="#000000" />
			<path fill="none" d=" M1096.45,1482.74 L1096.45,1104.52 M1096.45,1104.52 L883.871,1104.52 M883.871,1104.52 L883.871,943.548 M883.871,943.548 L763.871,943.548 M763.871,943.548 L763.871,1115.65 M763.871,1115.65 L703.871,1115.32" stroke="#000000" stroke-width="1.000000px" />
		</g>
		<g>
			<polygon points="995.645 964.516 996.895 969.516 994.395 969.516 " stroke="#000000" stroke-width="1.000000px" fill="#000000" />
			<path fill="none" d=" M1101.13,1482.74 L1101.13,1044.52 M1101.13,1044.52 L995.806,1044.52 M995.806,1044.52 L995.645,964.516" stroke="#000000" stroke-width="1.000000px" />
		</g>
		<g>
			<polygon points="722.097 1216.29 727.097 1215.04 727.097 1217.54 " stroke="#000000" stroke-width="1.000000px" fill="#000000" />
			<path fill="none" d=" M1091.77,1482.74 L1091.77,1205.32 M1091.77,1205.32 L843.871,1205.32 M843.871,1205.32 L843.871,1216.45 M843.871,1216.45 L722.097,1216.29" stroke="#000000" stroke-width="1.000000px" />
		</g>
		<g>
			<polygon points="621.129 1511.94 626.129 1510.69 626.129 1513.19 " stroke="#000000" stroke-width="1.000000px" fill="#000000" />
			<path fill="none" d=" M1087.1,1502.74 L1087.1,1587.1 M1087.1,1587.1 L641.129,1587.1 M641.129,1587.1 L641.129,1509.84 M641.129,1509.84 L621.129,1511.94" stroke="#000000" stroke-width="1.000000px" />
		</g>
		<g>
			<polygon points="470 723.548 471.25 728.548 468.75 728.548 " stroke="#000000" stroke-width="1.000000px" fill="#000000" />
			<path fill="none" d=" M863.871,1326.29 L863.871,843.548 M863.871,843.548 L471.129,843.548 M471.129,843.548 L470,723.548" stroke="#000000" stroke-width="1.000000px" />
		</g>
		<g>
			<polygon points="481.129 1486.13 486.129 1484.88 486.129 1487.38 " stroke="#000000" stroke-width="1.000000px" fill="#000000" />
			<path fill="none" d=" M854.516,1346.29 L854.516,1367.1 M854.516,1367.1 L582.097,1367.1 M582.097,1367.1 L582.097,1481.94 M582.097,1481.94 L481.129,1486.13" stroke="#000000" stroke-width="1.000000px" />
		</g>
		<g>
			<polygon points="822.903 1497.1 827.903 1495.85 827.903 1498.35 " stroke="#000000" stroke-width="1.000000px" fill="#000000" />
			<path fill="none" d=" M863.871,1346.29 L863.871,1488.06 M863.871,1488.06 L822.903,1497.1" stroke="#000000" stroke-width="1.000000px" />
		</g>
		<g>
			<polygon points="924.677 1318.06 919.677 1319.31 919.677 1316.81 " stroke="#000000" stroke-width="1.000000px" fill="#000000" />
			<path fill="none" d=" M864.677,1327.1 L924.677,1318.06" stroke="#000000" stroke-width="1.000000px" />
		</g>
		<g>
			<polygon points="693.871 1125.32 695.121 1130.32 692.621 1130.32 " stroke="#000000" stroke-width="1.000000px" fill="#000000" />
			<path fill="none" d=" M844.677,1327.1 L662.097,1327.1 M662.097,1327.1 L662.097,1185.32 M662.097,1185.32 L694.032,1185.32 M694.032,1185.32 L693.871,1125.32" stroke="#000000" stroke-width="1.000000px" />
		</g>
		<g>
			<polygon points="995.645 964.516 996.895 969.516 994.395 969.516 " stroke="#000000" stroke-width="1.000000px" fill="#000000" />
			<path fill="none" d=" M864.677,1340.65 L904.677,1340.65 M904.677,1340.65 L904.677,1368.06 M904.677,1368.06 L1026.13,1368.06 M1026.13,1368.06 L1026.13,1084.52 M1026.13,1084.52 L989.677,1084.52 M989.677,1084.52 L995.645,964.516" stroke="#000000" stroke-width="1.000000px" />
		</g>
		<g>
			<polygon points="712.097 1226.29 713.347 1231.29 710.847 1231.29 " stroke="#000000" stroke-width="1.000000px" fill="#000000" />
			<path fill="none" d=" M845.645,1326.29 L845.645,1306.29 M845.645,1306.29 L843.871,1306.29 M843.871,1306.29 L843.871,1246.29 M843.871,1246.29 L721.129,1246.29 M721.129,1246.29 L712.097,1226.29" stroke="#000000" stroke-width="1.000000px" />
		</g>
		<g>
			<polygon points="611.129 1501.94 609.879 1496.94 612.379 1496.94 " stroke="#000000" stroke-width="1.000000px" fill="#000000" />
			<path fill="none" d=" M859.194,1346.29 L859.194,1427.1 M859.194,1427.1 L620.323,1427.1 M620.323,1427.1 L611.129,1501.94" stroke="#000000" stroke-width="1.000000px" />
		</g>
		<g>
			<polygon points="1086.13 1492.74 1081.13 1493.99 1081.13 1491.49 " stroke="#000000" stroke-width="1.000000px" fill="#000000" />
			<path fill="none" d=" M864.677,1345.32 L884.677,1345.32 M884.677,1345.32 L884.677,1388.06 M884.677,1388.06 L1066.13,1388.06 M1066.13,1388.06 L1066.13,1483.39 M1066.13,1483.39 L1086.13,1492.74" stroke="#000000" stroke-width="1.000000px" />
		</g>
		<g>
			<polygon points="80 1978.23 85 1976.98 85 1979.48 " stroke="#000000" stroke-width="1.000000px" fill="#000000" />
			<path fill="none" d=" M1809.68,592.581 L1809.68,420.968 M1809.68,420.968 L160,420.968 M160,420.968 L160,1973.39 M160,1973.39 L80,1978.23" stroke="#000000" stroke-width="1.000000px" />
		</g>
		<g>
			<polygon points="1929.68 309.194 1924.68 310.444 1924.68 307.944 " stroke="#000000" stroke-width="1.000000px" fill="#000000" />
			<path fill="none" d=" M1827.9,612.581 L1827.9,632.581 M1827.9,632.581 L1869.68,632.581 M1869.68,632.581 L1869.68,309.194 M1869.68,309.194 L1929.68,309.194" stroke="#000000" stroke-width="1.000000px" />
		</g>
		<g>
			<polygon points="1477.42 1898.23 1476.17 1893.23 1478.67 1893.23 " stroke="#000000" stroke-width="1.000000px" fill="#000000" />
			<path fill="none" d=" M1809.68,612.581 L1809.68,1798.23 M1809.68,1798.23 L1477.74,1798.23 M1477.74,1798.23 L1477.42,1898.23" stroke="#000000" stroke-width="1.000000px" />
		</g>
		<g>
			<polygon points="389.355 300.968 390.605 305.968 388.105 305.968 " stroke="#000000" stroke-width="1.000000px" fill="#000000" />
			<path fill="none" d=" M1827.9,592.581 L1827.9,480.968 M1827.9,480.968 L1829.68,480.968 M1829.68,480.968 L1829.68,320.968 M1829.68,320.968 L398.71,320.968 M398.71,320.968 L389.355,300.968" stroke="#000000" stroke-width="1.000000px" />
		</g>
		<g>
			<polygon points="1587.9 994.516 1592.9 993.266 1592.9 995.766 " stroke="#000000" stroke-width="1.000000px" fill="#000000" />
			<path fill="none" d=" M1808.71,611.774 L1788.71,611.774 M1788.71,611.774 L1788.71,744.516 M1788.71,744.516 L1688.71,744.516 M1688.71,744.516 L1688.71,994.677 M1688.71,994.677 L1587.9,994.516" stroke="#000000" stroke-width="1.000000px" />
		</g>
		<g>
			<polygon points="480 713.548 485 712.298 485 714.798 " stroke="#000000" stroke-width="1.000000px" fill="#000000" />
			<path fill="none" d=" M1808.71,607.258 L1768.71,607.258 M1768.71,607.258 L1768.71,724.516 M1768.71,724.516 L1487.9,724.516 M1487.9,724.516 L1487.9,713.387 M1487.9,713.387 L480,713.548" stroke="#000000" stroke-width="1.000000px" />
		</g>
		<g>
			<polygon points="80 1978.23 85 1976.98 85 1979.48 " stroke="#000000" stroke-width="1.000000px" fill="#000000" />
			<path fill="none" d=" M1667.9,616.29 L1627.9,616.29 M1627.9,616.29 L1627.9,663.548 M1627.9,663.548 L220,663.548 M220,663.548 L220,1978.23 M220,1978.23 L80,1978.23" stroke="#000000" stroke-width="1.000000px" />
		</g>
		<g>
			<polygon points="1929.68 309.194 1924.68 310.444 1924.68 307.944 " stroke="#000000" stroke-width="1.000000px" fill="#000000" />
			<path fill="none" d=" M1687.9,607.419 L1748.71,607.419 M1748.71,607.419 L1748.71,764.516 M1748.71,764.516 L1889.68,764.516 M1889.68,764.516 L1889.68,313.71 M1889.68,313.71 L1929.68,309.194" stroke="#000000" stroke-width="1.000000px" />
		</g>
		<g>
			<polygon points="1477.42 1898.23 1476.17 1893.23 1478.67 1893.23 " stroke="#000000" stroke-width="1.000000px" fill="#000000" />
			<path fill="none" d=" M1687.9,612.097 L1728.71,612.097 M1728.71,612.097 L1728.71,1778.23 M1728.71,1778.23 L1475.32,1778.23 M1475.32,1778.23 L1477.42,1898.23" stroke="#000000" stroke-width="1.000000px" />
		</g>
		<g>
			<polygon points="389.355 300.968 390.605 305.968 388.105 305.968 " stroke="#000000" stroke-width="1.000000px" fill="#000000" />
			<path fill="none" d=" M1686.94,601.774 L1686.94,581.774 M1686.94,581.774 L1729.68,581.774 M1729.68,581.774 L1729.68,340.968 M1729.68,340.968 L395,340.968 M395,340.968 L389.355,300.968" stroke="#000000" stroke-width="1.000000px" />
		</g>
		<g>
			<polygon points="1587.9 994.516 1592.9 993.266 1592.9 995.766 " stroke="#000000" stroke-width="1.000000px" fill="#000000" />
			<path fill="none" d=" M1668.71,621.774 L1668.71,990 M1668.71,990 L1587.9,994.516" stroke="#000000" stroke-width="1.000000px" />
		</g>
		<g>
			<polygon points="480 713.548 485 712.298 485 714.798 " stroke="#000000" stroke-width="1.000000px" fill="#000000" />
			<path fill="none" d=" M1667.9,620.968 L1647.9,620.968 M1647.9,620.968 L1647.9,704.516 M1647.9,704.516 L480,713.548" stroke="#000000" stroke-width="1.000000px" />
		</g>
		<g>
			<polygon points="1808.71 602.581 1803.71 603.831 1803.71 601.331 " stroke="#000000" stroke-width="1.000000px" fill="#000000" />
			<path fill="none" d=" M1687.9,602.742 L1808.71,602.581" stroke="#000000" stroke-width="1.000000px" />
		</g>
		<g>
			<polygon points="80 1978.23 85 1976.98 85 1979.48 " stroke="#000000" stroke-width="1.000000px" fill="#000000" />
			<path fill="none" d=" M1649.68,480.968 L180,480.968 M180,480.968 L180,1975 M180,1975 L80,1978.23" stroke="#000000" stroke-width="1.000000px" />
		</g>
		<g>
			<polygon points="1929.68 309.194 1924.68 310.444 1924.68 307.944 " stroke="#000000" stroke-width="1.000000px" fill="#000000" />
			<path fill="none" d=" M1669.68,462.742 L1689.68,462.742 M1689.68,462.742 L1689.68,440.968 M1689.68,440.968 L1849.68,440.968 M1849.68,440.968 L1849.68,304.677 M1849.68,304.677 L1929.68,309.194" stroke="#000000" stroke-width="1.000000px" />
		</g>
		<g>
			<polygon points="1477.42 1898.23 1476.17 1893.23 1478.67 1893.23 " stroke="#000000" stroke-width="1.000000px" fill="#000000" />
			<path fill="none" d=" M1669.68,467.419 L1709.68,467.419 M1709.68,467.419 L1709.68,460.968 M1709.68,460.968 L1849.68,460.968 M1849.68,460.968 L1849.68,1818.23 M1849.68,1818.23 L1480,1818.23 M1480,1818.23 L1477.42,1898.23" stroke="#000000" stroke-width="1.000000px" />
		</g>
		<g>
			<polygon points="389.355 300.968 390.605 305.968 388.105 305.968 " stroke="#000000" stroke-width="1.000000px" fill="#000000" />
			<path fill="none" d=" M1650.48,461.774 L1650.48,360.968 M1650.48,360.968 L391.452,360.968 M391.452,360.968 L389.355,300.968" stroke="#000000" stroke-width="1.000000px" />
		</g>
		<g>
			<polygon points="1587.9 994.516 1592.9 993.266 1592.9 995.766 " stroke="#000000" stroke-width="1.000000px" fill="#000000" />
			<path fill="none" d=" M1659.84,481.774 L1659.84,541.774 M1659.84,541.774 L1607.9,541.774 M1607.9,541.774 L1607.9,985.323 M1607.9,985.323 L1587.9,994.516" stroke="#000000" stroke-width="1.000000px" />
		</g>
		<g>
			<polygon points="461.129 1486.13 456.129 1487.38 456.129 1484.88 " stroke="#000000" stroke-width="1.000000px" fill="#000000" />
			<path fill="none" d=" M1650.48,481.774 L1650.48,501.774 M1650.48,501.774 L440,501.774 M440,501.774 L440,1485.97 M440,1485.97 L461.129,1486.13" stroke="#000000" stroke-width="1.000000px" />
		</g>
		<g>
			<polygon points="1808.71 602.581 1803.71 603.831 1803.71 601.331 " stroke="#000000" stroke-width="1.000000px" fill="#000000" />
			<path fill="none" d=" M1669.68,480.968 L1788.71,480.968 M1788.71,480.968 L1788.71,593.548 M1788.71,593.548 L1808.71,602.581" stroke="#000000" stroke-width="1.000000px" />
		</g>
		<g>
			<polygon points="1677.9 601.774 1676.65 596.774 1679.15 596.774 " stroke="#000000" stroke-width="1.000000px" fill="#000000" />
			<path fill="none" d=" M1668.71,481.774 L1677.9,601.774" stroke="#000000" stroke-width="1.000000px" />
		</g>
		<g>
			<polygon points="80 1978.23 85 1976.98 85 1979.48 " stroke="#000000" stroke-width="1.000000px" fill="#000000" />
			<path fill="none" d=" M1486.94,602.742 L200,602.742 M200,602.742 L200,1976.61 M200,1976.61 L80,1978.23" stroke="#000000" stroke-width="1.000000px" />
		</g>
		<g>
			<polygon points="1477.42 1898.23 1476.17 1893.23 1478.67 1893.23 " stroke="#000000" stroke-width="1.000000px" fill="#000000" />
			<path fill="none" d=" M1501.45,603.548 L1501.45,643.548 M1501.45,643.548 L1507.9,643.548 M1507.9,643.548 L1507.9,1023.55 M1507.9,1023.55 L1470.65,1023.55 M1470.65,1023.55 L1477.42,1898.23" stroke="#000000" stroke-width="1.000000px" />
		</g>
		<g>
			<polygon points="389.355 300.968 390.605 305.968 388.105 305.968 " stroke="#000000" stroke-width="1.000000px" fill="#000000" />
			<path fill="none" d=" M1486.94,584.516 L480,584.516 M480,584.516 L480,582.742 M480,582.742 L420,582.742 M420,582.742 L420,380.968 M420,380.968 L387.742,380.968 M387.742,380.968 L389.355,300.968" stroke="#000000" stroke-width="1.000000px" />
		</g>
		<g>
			<polygon points="1577.9 984.516 1576.65 979.516 1579.15 979.516 " stroke="#000000" stroke-width="1.000000px" fill="#000000" />
			<path fill="none" d=" M1506.13,603.548 L1506.13,623.548 M1506.13,623.548 L1568.71,623.548 M1568.71,623.548 L1577.9,984.516" stroke="#000000" stroke-width="1.000000px" />
		</g>
		<g>
			<polygon points="470 703.548 468.75 698.548 471.25 698.548 " stroke="#000000" stroke-width="1.000000px" fill="#000000" />
			<path fill="none" d=" M1487.9,603.548 L1487.9,683.548 M1487.9,683.548 L479.032,683.548 M479.032,683.548 L470,703.548" stroke="#000000" stroke-width="1.000000px" />
		</g>
		<g>
			<polygon points="1808.71 602.581 1803.71 603.831 1803.71 601.331 " stroke="#000000" stroke-width="1.000000px" fill="#000000" />
			<path fill="none" d=" M1506.13,583.548 L1506.13,561.774 M1506.13,561.774 L1749.68,561.774 M1749.68,561.774 L1749.68,598.226 M1749.68,598.226 L1808.71,602.581" stroke="#000000" stroke-width="1.000000px" />
		</g>
		<g>
			<polygon points="1667.9 611.774 1662.9 613.024 1662.9 610.524 " stroke="#000000" stroke-width="1.000000px" fill="#000000" />
			<path fill="none" d=" M1506.94,602.742 L1667.9,611.774" stroke="#000000" stroke-width="1.000000px" />
		</g>
		<g>
			<polygon points="1659.68 481.774 1660.93 486.774 1658.43 486.774 " stroke="#000000" stroke-width="1.000000px" fill="#000000" />
			<path fill="none" d=" M1501.45,583.548 L1501.45,521.774 M1501.45,521.774 L1655.16,521.774 M1655.16,521.774 L1659.68,481.774" stroke="#000000" stroke-width="1.000000px" />
		</g>
		<g>
			<polygon points="693.871 1105.32 692.621 1100.32 695.121 1100.32 " stroke="#000000" stroke-width="1.000000px" fill="#000000" />
			<path fill="none" d=" M80,1981.29 L260,1981.29 M260,1981.29 L260,1084.52 M260,1084.52 L684.677,1084.52 M684.677,1084.52 L693.871,1105.32" stroke="#000000" stroke-width="1.000000px" />
		</g>
	</g>
	<g>
		<rect x="60" y="1968.2258064516129" width="20" height="20" fill="#FFFFFF" stroke-width="1.000000px" stroke="#000000" />
		<text x="70" y="1978.2258064516129" text-anchor="middle" dominant-baseline="middle" font-family="Arial" font-size="10" fill="#000000">18</text>
	</g>
	<g>
		<rect x="460" y="703.54838709677415" width="20" height="20" fill="#FFFFFF" stroke-width="1.000000px" stroke="#000000" />
		<text x="470" y="713.54838709677415" text-anchor="middle" dominant-baseline="middle" font-family="Arial" font-size="10" fill="#000000">10</text>
	</g>
	<g>
		<rect x="1387.4193548387098" y="1928.0645161290322" width="20" height="20" fill="#FFFFFF" stroke-width="1.000000px" stroke="#000000" />
		<text x="1397.4193548387098" y="1938.0645161290322" text-anchor="middle" dominant-baseline="middle" font-family="Arial" font-size="10" fill="#000000">13</text>
	</g>
	<g>
		<rect x="379.35483870967744" y="280.9677419354839" width="20" height="20" fill="#FFFFFF" stroke-width="1.000000px" stroke="#000000" />
		<text x="389.35483870967744" y="290.9677419354839" text-anchor="middle" dominant-baseline="middle" font-family="Arial" font-size="10" fill="#000000">19</text>
	</g>
	<g>
		<rect x="1467.4193548387098" y="1898.2258064516129" width="20" height="20" fill="#FFFFFF" stroke-width="1.000000px" stroke="#000000" />
		<text x="1477.4193548387098" y="1908.2258064516129" text-anchor="middle" dominant-baseline="middle" font-family="Arial" font-size="10" fill="#000000">16</text>
	</g>
	<g>
		<rect x="1970.483870967742" y="80.9677419354839" width="20" height="20" fill="#FFFFFF" stroke-width="1.000000px" stroke="#000000" />
		<text x="1980.483870967742" y="90.9677419354839" text-anchor="middle" dominant-baseline="middle" font-family="Arial" font-size="10" fill="#000000">23</text>
	</g>
	<g>
		<rect x="461.12903225806451" y="1476.1290322580646" width="20" height="20" fill="#FFFFFF" stroke-width="1.000000px" stroke="#000000" />
		<text x="471.12903225806451" y="1486.1290322580646" text-anchor="middle" dominant-baseline="middle" font-family="Arial" font-size="10" fill="#000000">4</text>
	</g>
	<g>
		<rect x="985.64516129032256" y="944.51612903225805" width="20" height="20" fill="#FFFFFF" stroke-width="1.000000px" stroke="#000000" />
		<text x="995.64516129032256" y="954.51612903225805" text-anchor="middle" dominant-baseline="middle" font-family="Arial" font-size="10" fill="#000000">25</text>
	</g>
	<g>
		<rect x="601.12903225806451" y="1501.9354838709678" width="20" height="20" fill="#FFFFFF" stroke-width="1.000000px" stroke="#000000" />
		<text x="611.12903225806451" y="1511.9354838709678" text-anchor="middle" dominant-baseline="middle" font-family="Arial" font-size="10" fill="#000000">22</text>
	</g>
	<g>
		<rect x="702.09677419354841" y="1206.2903225806454" width="20" height="20" fill="#FFFFFF" stroke-width="1.000000px" stroke="#000000" />
		<text x="712.09677419354841" y="1216.2903225806454" text-anchor="middle" dominant-baseline="middle" font-family="Arial" font-size="10" fill="#000000">30</text>
	</g>
	<g>
		<rect x="1086.1290322580644" y="1482.741935483871" width="20" height="20" fill="#FFFFFF" stroke-width="1.000000px" stroke="#000000" />
		<text x="1096.1290322580644" y="1492.741935483871" text-anchor="middle" dominant-baseline="middle" font-family="Arial" font-size="10" fill="#000000">5</text>
	</g>
	<g>
		<rect x="1929.6774193548385" y="299.19354838709683" width="20" height="20" fill="#FFFFFF" stroke-width="1.000000px" stroke="#000000" />
		<text x="1939.6774193548385" y="309.19354838709683" text-anchor="middle" dominant-baseline="middle" font-family="Arial" font-size="10" fill="#000000">11</text>
	</g>
	<g>
		<rect x="2051.1290322580644" y="1893.8709677419356" width="20" height="20" fill="#FFFFFF" stroke-width="1.000000px" stroke="#000000" />
		<text x="2061.1290322580644" y="1903.8709677419356" text-anchor="middle" dominant-baseline="middle" font-family="Arial" font-size="10" fill="#000000">8</text>
	</g>
	<g>
		<rect x="1567.9032258064515" y="984.51612903225816" width="20" height="20" fill="#FFFFFF" stroke-width="1.000000px" stroke="#000000" />
		<text x="1577.9032258064515" y="994.51612903225816" text-anchor="middle" dominant-baseline="middle" font-family="Arial" font-size="10" fill="#000000">2</text>
	</g>
	<g>
		<rect x="1246.1290322580644" y="1808.0645161290322" width="20" height="20" fill="#FFFFFF" stroke-width="1.000000px" stroke="#000000" />
		<text x="1256.1290322580644" y="1818.0645161290322" text-anchor="middle" dominant-baseline="middle" font-family="Arial" font-size="10" fill="#000000">17</text>
	</g>
	<g>
		<rect x="802.90322580645159" y="1487.0967741935483" width="20" height="20" fill="#FFFFFF" stroke-width="1.000000px" stroke="#000000" />
		<text x="812.90322580645159" y="1497.0967741935483" text-anchor="middle" dominant-baseline="middle" font-family="Arial" font-size="10" fill="#000000">26</text>
	</g>
	<g>
		<rect x="683.87096774193549" y="1105.3225806451615" width="20" height="20" fill="#FFFFFF" stroke-width="1.000000px" stroke="#000000" />
		<text x="693.87096774193549" y="1115.3225806451615" text-anchor="middle" dominant-baseline="middle" font-family="Arial" font-size="10" fill="#000000">0</text>
	</g>
	<g>
		<rect x="20" y="1968.2258064516129" width="20" height="20" fill="#FFFFFF" stroke-width="1.000000px" stroke="#000000" />
		<text x="30" y="1978.2258064516129" text-anchor="middle" dominant-baseline="middle" font-family="Arial" font-size="10" fill="#000000">20</text>
	</g>
	<g>
		<rect x="844.67741935483866" y="1326.2903225806454" width="20" height="20" fill="#FFFFFF" stroke-width="1.000000px" stroke="#000000" />
		<text x="854.67741935483866" y="1336.2903225806454" text-anchor="middle" dominant-baseline="middle" font-family="Arial" font-size="10" fill="#000000">15</text>
	</g>
	<g>
		<rect x="1808.7096774193549" y="592.58064516129048" width="20" height="20" fill="#FFFFFF" stroke-width="1.000000px" stroke="#000000" />
		<text x="1818.7096774193549" y="602.58064516129048" text-anchor="middle" dominant-baseline="middle" font-family="Arial" font-size="10" fill="#000000">24</text>
	</g>
	<g>
		<rect x="1667.9032258064515" y="601.77419354838707" width="20" height="20" fill="#FFFFFF" stroke-width="1.000000px" stroke="#000000" />
		<text x="1677.9032258064515" y="611.77419354838707" text-anchor="middle" dominant-baseline="middle" font-family="Arial" font-size="10" fill="#000000">3</text>
	</g>
	<g>
		<rect x="1649.6774193548388" y="461.77419354838707" width="20" height="20" fill="#FFFFFF" stroke-width="1.000000px" stroke="#000000" />
		<text x="1659.6774193548388" y="471.77419354838707" text-anchor="middle" dominant-baseline="middle" font-family="Arial" font-size="10" fill="#000000">6</text>
	</g>
	<g>
		<rect x="2110.1612903225805" y="464.51612903225805" width="20" height="20" fill="#FFFFFF" stroke-width="1.000000px" stroke="#000000" />
		<text x="2120.1612903225805" y="474.51612903225805" text-anchor="middle" dominant-baseline="middle" font-family="Arial" font-size="10" fill="#000000">9</text>
	</g>
	<g>
		<rect x="924.67741935483866" y="1308.0645161290322" width="20" height="20" fill="#FFFFFF" stroke-width="1.000000px" stroke="#000000" />
		<text x="934.67741935483866" y="1318.0645161290322" text-anchor="middle" dominant-baseline="middle" font-family="Arial" font-size="10" fill="#000000">21</text>
	</g>
	<g>
		<rect x="1486.9354838709678" y="583.54838709677415" width="20" height="20" fill="#FFFFFF" stroke-width="1.000000px" stroke="#000000" />
		<text x="1496.9354838709678" y="593.54838709677415" text-anchor="middle" dominant-baseline="middle" font-family="Arial" font-size="10" fill="#000000">28</text>
	</g>
	<g>
		<rect x="370.16129032258061" y="60" width="20" height="20" fill="#FFFFFF" stroke-width="1.000000px" stroke="#000000" />
		<text x="380.16129032258061" y="70" text-anchor="middle" dominant-baseline="middle" font-family="Arial" font-size="10" fill="#000000">12</text>
	</g>
	<g>
		<rect x="2171.9354838709678" y="243.54838709677438" width="20" height="20" fill="#FFFFFF" stroke-width="1.000000px" stroke="#000000" />
		<text x="2181.9354838709678" y="253.54838709677438" text-anchor="middle" dominant-baseline="middle" font-family="Arial" font-size="10" fill="#000000">29</text>
	</g>
	<g>
		<rect x="2091.9354838709678" y="261.77419354838707" width="20" height="20" fill="#FFFFFF" stroke-width="1.000000px" stroke="#000000" />
		<text x="2101.9354838709678" y="271.77419354838707" text-anchor="middle" dominant-baseline="middle" font-family="Arial" font-size="10" fill="#000000">27</text>
	</g>
	<g>
		<rect x="2254.6774193548385" y="181.77419354838707" width="20" height="20" fill="#FFFFFF" stroke-width="1.000000px" stroke="#000000" />
		<text x="2264.6774193548385" y="191.77419354838707" text-anchor="middle" dominant-baseline="middle" font-family="Arial" font-size="10" fill="#000000">1</text>
	</g>
	<g>
		<rect x="2192.9032258064517" y="363.54838709677415" width="20" height="20" fill="#FFFFFF" stroke-width="1.000000px" stroke="#000000" />
		<text x="2202.9032258064517" y="373.54838709677415" text-anchor="middle" dominant-baseline="middle" font-family="Arial" font-size="10" fill="#000000">7</text>
	</g>
	<g>
		<rect x="2233.7096774193546" y="261.77419354838707" width="20" height="20" fill="#FFFFFF" stroke-width="1.000000px" stroke="#000000" />
		<text x="2243.7096774193546" y="271.77419354838707" text-anchor="middle" dominant-baseline="middle" font-family="Arial" font-size="10" fill="#000000">14</text>
	</g>
</svg>
