<?xml version="1.0"?>
<svg xmlns="http://www.w3.org/2000/svg" xmlns:xlink="http://www.w3.org/1999/xlink" xmlns:ev="http://www.w3.org/2001/xml-events" version="1.1" baseProfile="full" viewBox="18.5 18.5 2339.42 1969.12">
	<g>
		<g>
			<polygon points="883.433 1397.01 888.433 1395.76 888.433 1398.26 " stroke="#000000" stroke-width="1.000000px" fill="#000000" />
			<path fill="none" d=" M923.433,1406.12 L883.433,1397.01" stroke="#000000" stroke-width="1.000000px" />
		</g>
		<g>
			<polygon points="1184.63 1114.48 1189.63 1113.23 1189.63 1115.73 " stroke="#000000" stroke-width="1.000000px" fill="#000000" />
			<path fill="none" d=" M1475.52,1127.01 L1475.52,1205.22 M1475.52,1205.22 L1204.63,1205.22 M1204.63,1205.22 L1204.63,1123.58 M1204.63,1123.58 L1184.63,1114.48" stroke="#000000" stroke-width="1.000000px" />
		</g>
		<g>
			<polygon points="1184.63 1114.48 1189.63 1113.23 1189.63 1115.73 " stroke="#000000" stroke-width="1.000000px" fill="#000000" />
			<path fill="none" d=" M1399.85,1145.22 L1399.85,1185.22 M1399.85,1185.22 L1224.63,1185.22 M1224.63,1185.22 L1224.63,1119.1 M1224.63,1119.1 L1184.63,1114.48" stroke="#000000" stroke-width="1.000000px" />
		</g>
		<g>
			<polygon points="1465.52 1117.01 1460.52 1118.26 1460.52 1115.76 " stroke="#000000" stroke-width="1.000000px" fill="#000000" />
			<path fill="none" d=" M1405.52,1126.12 L1465.52,1117.01" stroke="#000000" stroke-width="1.000000px" />
		</g>
		<g>
			<polygon points="1184.63 1114.48 1189.63 1113.23 1189.63 1115.73 " stroke="#000000" stroke-width="1.000000px" fill="#000000" />
			<path fill="none" d=" M1325.52,1126.12 L1244.63,1126.12 M1244.63,1126.12 L1244.63,1114.63 M1244.63,1114.63 L1184.63,1114.48" stroke="#000000" stroke-width="1.000000px" />
		</g>
		<g>
			<polygon points="1465.52 1117.01 1460.52 1118.26 1460.52 1115.76 " stroke="#000000" stroke-width="1.000000px" fill="#000000" />
			<path fill="none" d=" M1345.52,1126.12 L1365.52,1126.12 M1365.52,1126.12 L1365.52,1105.22 M1365.52,1105.22 L1425.52,1105.22 M1425.52,1105.22 L1425.52,1112.69 M1425.52,1112.69 L1465.52,1117.01" stroke="#000000" stroke-width="1.000000px" />
		</g>
		<g>
			<polygon points="1385.52 1135.22 1380.52 1136.47 1380.52 1133.97 " stroke="#000000" stroke-width="1.000000px" fill="#000000" />
			<path fill="none" d=" M1345.52,1130.9 L1385.52,1135.22" stroke="#000000" stroke-width="1.000000px" />
		</g>
		<g>
			<polygon points="1184.63 1114.48 1189.63 1113.23 1189.63 1115.73 " stroke="#000000" stroke-width="1.000000px" fill="#000000" />
			<path fill="none" d=" M1264.63,1105.22 L1184.63,1114.48" stroke="#000000" stroke-width="1.000000px" />
		</g>
		<g>
			<polygon points="1465.52 1117.01 1460.52 1118.26 1460.52 1115.76 " stroke="#000000" stroke-width="1.000000px" fill="#000000" />
			<path fill="none" d=" M1284.63,1091.79 L1324.63,1091.79 M1324.63,1091.79 L1324.63,1085.22 M1324.63,1085.22 L1445.52,1085.22 M1445.52,1085.22 L1445.52,1107.91 M1445.52,1107.91 L1465.52,1117.01" stroke="#000000" stroke-width="1.000000px" />
		</g>
		<g>
			<polygon points="1395.52 1145.22 1396.77 1150.22 1394.27 1150.22 " stroke="#000000" stroke-width="1.000000px" fill="#000000" />
			<path fill="none" d=" M1274.63,1106.12 L1274.63,1165.22 M1274.63,1165.22 L1395.22,1165.22 M1395.22,1165.22 L1395.52,1145.22" stroke="#000000" stroke-width="1.000000px" />
		</g>
		<g>
			<polygon points="1335.52 1125.22 1334.27 1120.22 1336.77 1120.22 " stroke="#000000" stroke-width="1.000000px" fill="#000000" />
			<path fill="none" d=" M1284.63,1105.22 L1326.42,1105.22 M1326.42,1105.22 L1335.52,1125.22" stroke="#000000" stroke-width="1.000000px" />
		</g>
		<g>
			<polygon points="1174.63 1104.48 1173.38 1099.48 1175.88 1099.48 " stroke="#000000" stroke-width="1.000000px" fill="#000000" />
			<path fill="none" d=" M1353.73,1005.22 L1353.73,985.224 M1353.73,985.224 L1183.73,985.224 M1183.73,985.224 L1174.63,1104.48" stroke="#000000" stroke-width="1.000000px" />
		</g>
		<g>
			<polygon points="1475.52 1107.01 1474.27 1102.01 1476.77 1102.01 " stroke="#000000" stroke-width="1.000000px" fill="#000000" />
			<path fill="none" d=" M1362.84,1025.22 L1362.84,1045.22 M1362.84,1045.22 L1466.42,1045.22 M1466.42,1045.22 L1475.52,1107.01" stroke="#000000" stroke-width="1.000000px" />
		</g>
		<g>
			<polygon points="1395.52 1125.22 1394.27 1120.22 1396.77 1120.22 " stroke="#000000" stroke-width="1.000000px" fill="#000000" />
			<path fill="none" d=" M1358.06,1025.22 L1358.06,1065.22 M1358.06,1065.22 L1386.42,1065.22 M1386.42,1065.22 L1395.52,1125.22" stroke="#000000" stroke-width="1.000000px" />
		</g>
		<g>
			<polygon points="1335.52 1125.22 1334.27 1120.22 1336.77 1120.22 " stroke="#000000" stroke-width="1.000000px" fill="#000000" />
			<path fill="none" d=" M1344.63,1025.22 L1335.52,1125.22" stroke="#000000" stroke-width="1.000000px" />
		</g>
		<g>
			<polygon points="1284.63 1096.12 1289.63 1094.87 1289.63 1097.37 " stroke="#000000" stroke-width="1.000000px" fill="#000000" />
			<path fill="none" d=" M1343.73,1024.33 L1304.63,1024.33 M1304.63,1024.33 L1304.63,1087.01 M1304.63,1087.01 L1284.63,1096.12" stroke="#000000" stroke-width="1.000000px" />
		</g>
		<g>
			<polygon points="933.433 1405.22 932.183 1400.22 934.683 1400.22 " stroke="#000000" stroke-width="1.000000px" fill="#000000" />
			<path fill="none" d=" M1566.42,1098.66 L1566.42,1285.22 M1566.42,1285.22 L933.731,1285.22 M933.731,1285.22 L933.433,1405.22" stroke="#000000" stroke-width="1.000000px" />
		</g>
		<g>
			<polygon points="1174.63 1124.48 1175.88 1129.48 1173.38 1129.48 " stroke="#000000" stroke-width="1.000000px" fill="#000000" />
			<path fill="none" d=" M1565.52,1098.06 L1545.52,1098.06 M1545.52,1098.06 L1545.52,1265.22 M1545.52,1265.22 L1183.73,1265.22 M1183.73,1265.22 L1174.63,1124.48" stroke="#000000" stroke-width="1.000000px" />
		</g>
		<g>
			<polygon points="1475.52 1107.01 1474.27 1102.01 1476.77 1102.01 " stroke="#000000" stroke-width="1.000000px" fill="#000000" />
			<path fill="none" d=" M1565.52,1087.01 L1475.52,1087.01 M1475.52,1087.01 L1475.52,1107.01" stroke="#000000" stroke-width="1.000000px" />
		</g>
		<g>
			<polygon points="1395.52 1145.22 1396.77 1150.22 1394.27 1150.22 " stroke="#000000" stroke-width="1.000000px" fill="#000000" />
			<path fill="none" d=" M1565.52,1090.75 L1505.52,1090.75 M1505.52,1090.75 L1505.52,1225.22 M1505.52,1225.22 L1404.63,1225.22 M1404.63,1225.22 L1395.52,1145.22" stroke="#000000" stroke-width="1.000000px" />
		</g>
		<g>
			<polygon points="1335.52 1145.22 1336.77 1150.22 1334.27 1150.22 " stroke="#000000" stroke-width="1.000000px" fill="#000000" />
			<path fill="none" d=" M1565.52,1094.33 L1525.52,1094.33 M1525.52,1094.33 L1525.52,1245.22 M1525.52,1245.22 L1335.52,1245.22 M1335.52,1245.22 L1335.52,1145.22" stroke="#000000" stroke-width="1.000000px" />
		</g>
		<g>
			<polygon points="1274.63 1086.12 1273.38 1081.12 1275.88 1081.12 " stroke="#000000" stroke-width="1.000000px" fill="#000000" />
			<path fill="none" d=" M1565.52,1079.4 L1545.52,1079.4 M1545.52,1079.4 L1545.52,965.224 M1545.52,965.224 L1274.63,965.224 M1274.63,965.224 L1274.63,1086.12" stroke="#000000" stroke-width="1.000000px" />
		</g>
		<g>
			<polygon points="1363.73 1015.22 1368.73 1013.97 1368.73 1016.47 " stroke="#000000" stroke-width="1.000000px" fill="#000000" />
			<path fill="none" d=" M1565.52,1082.99 L1486.42,1082.99 M1486.42,1082.99 L1486.42,1024.33 M1486.42,1024.33 L1363.73,1015.22" stroke="#000000" stroke-width="1.000000px" />
		</g>
		<g>
			<polygon points="933.433 1405.22 932.183 1400.22 934.683 1400.22 " stroke="#000000" stroke-width="1.000000px" fill="#000000" />
			<path fill="none" d=" M1548.21,824.328 L1548.21,844.328 M1548.21,844.328 L1124.63,844.328 M1124.63,844.328 L1124.63,1245.22 M1124.63,1245.22 L930,1245.22 M930,1245.22 L933.433,1405.22" stroke="#000000" stroke-width="1.000000px" />
		</g>
		<g>
			<polygon points="1575.52 1078.66 1574.27 1073.66 1576.77 1073.66 " stroke="#000000" stroke-width="1.000000px" fill="#000000" />
			<path fill="none" d=" M1566.42,824.328 L1575.52,1078.66" stroke="#000000" stroke-width="1.000000px" />
		</g>
		<g>
			<polygon points="933.433 1405.22 932.183 1400.22 934.683 1400.22 " stroke="#000000" stroke-width="1.000000px" fill="#000000" />
			<path fill="none" d=" M1667.31,832.836 L1688.21,832.836 M1688.21,832.836 L1688.21,1305.22 M1688.21,1305.22 L935.672,1305.22 M935.672,1305.22 L933.433,1405.22" stroke="#000000" stroke-width="1.000000px" />
		</g>
		<g>
			<polygon points="1585.52 1088.66 1590.52 1087.41 1590.52 1089.91 " stroke="#000000" stroke-width="1.000000px" fill="#000000" />
			<path fill="none" d=" M1648.21,842.537 L1648.21,1079.55 M1648.21,1079.55 L1585.52,1088.66" stroke="#000000" stroke-width="1.000000px" />
		</g>
		<g>
			<polygon points="1567.31 814.328 1572.31 813.078 1572.31 815.578 " stroke="#000000" stroke-width="1.000000px" fill="#000000" />
			<path fill="none" d=" M1647.31,823.433 L1567.31,814.328" stroke="#000000" stroke-width="1.000000px" />
		</g>
		<g>
			<polygon points="933.433 1405.22 932.183 1400.22 934.683 1400.22 " stroke="#000000" stroke-width="1.000000px" fill="#000000" />
			<path fill="none" d=" M1178.06,943.433 L1144.63,943.433 M1144.63,943.433 L1144.63,1265.22 M1144.63,1265.22 L931.94,1265.22 M931.94,1265.22 L933.433,1405.22" stroke="#000000" stroke-width="1.000000px" />
		</g>
		<g>
			<polygon points="1174.63 1104.48 1173.38 1099.48 1175.88 1099.48 " stroke="#000000" stroke-width="1.000000px" fill="#000000" />
			<path fill="none" d=" M1178.96,944.328 L1174.63,1104.48" stroke="#000000" stroke-width="1.000000px" />
		</g>
		<g>
			<polygon points="1557.31 824.328 1558.56 829.328 1556.06 829.328 " stroke="#000000" stroke-width="1.000000px" fill="#000000" />
			<path fill="none" d=" M1197.16,924.328 L1197.16,864.328 M1197.16,864.328 L1552.84,864.328 M1552.84,864.328 L1557.31,824.328" stroke="#000000" stroke-width="1.000000px" />
		</g>
		<g>
			<polygon points="1647.31 832.537 1642.31 833.787 1642.31 831.287 " stroke="#000000" stroke-width="1.000000px" fill="#000000" />
			<path fill="none" d=" M1198.06,925.224 L1627.31,925.224 M1627.31,925.224 L1627.31,841.642 M1627.31,841.642 L1647.31,832.537" stroke="#000000" stroke-width="1.000000px" />
		</g>
		<g>
			<polygon points="933.433 1405.22 932.183 1400.22 934.683 1400.22 " stroke="#000000" stroke-width="1.000000px" fill="#000000" />
			<path fill="none" d=" M2036.42,829.254 L2056.42,829.254 M2056.42,829.254 L2056.42,1345.22 M2056.42,1345.22 L939.403,1345.22 M939.403,1345.22 L933.433,1405.22" stroke="#000000" stroke-width="1.000000px" />
		</g>
		<g>
			<polygon points="1585.52 1088.66 1590.52 1087.41 1590.52 1089.91 " stroke="#000000" stroke-width="1.000000px" fill="#000000" />
			<path fill="none" d=" M2016.42,829.552 L1996.42,829.552 M1996.42,829.552 L1996.42,1084.33 M1996.42,1084.33 L1585.52,1088.66" stroke="#000000" stroke-width="1.000000px" />
		</g>
		<g>
			<polygon points="1567.31 814.328 1572.31 813.078 1572.31 815.578 " stroke="#000000" stroke-width="1.000000px" fill="#000000" />
			<path fill="none" d=" M2016.42,820 L1936.42,820 M1936.42,820 L1936.42,742.537 M1936.42,742.537 L1627.31,742.537 M1627.31,742.537 L1627.31,814.627 M1627.31,814.627 L1567.31,814.328" stroke="#000000" stroke-width="1.000000px" />
		</g>
		<g>
			<polygon points="1667.31 832.537 1672.31 831.287 1672.31 833.787 " stroke="#000000" stroke-width="1.000000px" fill="#000000" />
			<path fill="none" d=" M2016.42,823.433 L1667.31,832.537" stroke="#000000" stroke-width="1.000000px" />
		</g>
		<g>
			<polygon points="1198.06 934.328 1203.06 933.078 1203.06 935.578 " stroke="#000000" stroke-width="1.000000px" fill="#000000" />
			<path fill="none" d=" M2016.42,826.567 L1976.42,826.567 M1976.42,826.567 L1976.42,945.224 M1976.42,945.224 L1546.42,945.224 M1546.42,945.224 L1546.42,943.433 M1546.42,943.433 L1198.06,934.328" stroke="#000000" stroke-width="1.000000px" />
		</g>
		<g>
			<polygon points="933.433 1405.22 932.183 1400.22 934.683 1400.22 " stroke="#000000" stroke-width="1.000000px" fill="#000000" />
			<path fill="none" d=" M1999.1,1304.33 L1999.1,1325.22 M1999.1,1325.22 L937.463,1325.22 M937.463,1325.22 L933.433,1405.22" stroke="#000000" stroke-width="1.000000px" />
		</g>
		<g>
			<polygon points="1575.52 1098.66 1576.77 1103.66 1574.27 1103.66 " stroke="#000000" stroke-width="1.000000px" fill="#000000" />
			<path fill="none" d=" M1998.21,1285.22 L1584.63,1285.22 M1584.63,1285.22 L1575.52,1098.66" stroke="#000000" stroke-width="1.000000px" />
		</g>
		<g>
			<polygon points="2026.42 830.149 2027.67 835.149 2025.17 835.149 " stroke="#000000" stroke-width="1.000000px" fill="#000000" />
			<path fill="none" d=" M2017.31,1284.33 L2026.42,830.149" stroke="#000000" stroke-width="1.000000px" />
		</g>
		<g>
			<polygon points="1557.31 804.328 1556.06 799.328 1558.56 799.328 " stroke="#000000" stroke-width="1.000000px" fill="#000000" />
			<path fill="none" d=" M1710,541.642 L1710,561.642 M1710,561.642 L1566.42,561.642 M1566.42,561.642 L1557.31,804.328" stroke="#000000" stroke-width="1.000000px" />
		</g>
		<g>
			<polygon points="1657.31 822.537 1656.06 817.537 1658.56 817.537 " stroke="#000000" stroke-width="1.000000px" fill="#000000" />
			<path fill="none" d=" M1714.63,541.642 L1714.63,581.642 M1714.63,581.642 L1648.21,581.642 M1648.21,581.642 L1657.31,822.537" stroke="#000000" stroke-width="1.000000px" />
		</g>
		<g>
			<polygon points="943.433 1415.22 948.433 1413.97 948.433 1416.47 " stroke="#000000" stroke-width="1.000000px" fill="#000000" />
			<path fill="none" d=" M2276.42,1656.42 L2116.42,1656.42 M2116.42,1656.42 L2116.42,1424.33 M2116.42,1424.33 L943.433,1415.22" stroke="#000000" stroke-width="1.000000px" />
		</g>
		<g>
			<polygon points="1667.31 832.537 1672.31 831.287 1672.31 833.787 " stroke="#000000" stroke-width="1.000000px" fill="#000000" />
			<path fill="none" d=" M2276.42,1654.93 L2136.42,1654.93 M2136.42,1654.93 L2136.42,1264.33 M2136.42,1264.33 L1956.42,1264.33 M1956.42,1264.33 L1956.42,828.209 M1956.42,828.209 L1667.31,832.537" stroke="#000000" stroke-width="1.000000px" />
		</g>
		<g>
			<polygon points="2036.42 820.149 2041.42 818.899 2041.42 821.399 " stroke="#000000" stroke-width="1.000000px" fill="#000000" />
			<path fill="none" d=" M2276.42,1653.43 L2156.42,1653.43 M2156.42,1653.43 L2156.42,1244.33 M2156.42,1244.33 L2076.42,1244.33 M2076.42,1244.33 L2076.42,824.627 M2076.42,824.627 L2036.42,820.149" stroke="#000000" stroke-width="1.000000px" />
		</g>
		<g>
			<polygon points="923.433 1415.22 918.433 1416.47 918.433 1413.97 " stroke="#000000" stroke-width="1.000000px" fill="#000000" />
			<path fill="none" d=" M803.433,1427.01 L903.433,1427.01 M903.433,1427.01 L903.433,1424.33 M903.433,1424.33 L923.433,1415.22" stroke="#000000" stroke-width="1.000000px" />
		</g>
		<g>
			<polygon points="1174.63 1124.48 1175.88 1129.48 1173.38 1129.48 " stroke="#000000" stroke-width="1.000000px" fill="#000000" />
			<path fill="none" d=" M803.433,1411.19 L843.433,1411.19 M843.433,1411.19 L843.433,1185.22 M843.433,1185.22 L1174.63,1185.22 M1174.63,1185.22 L1174.63,1124.48" stroke="#000000" stroke-width="1.000000px" />
		</g>
		<g>
			<polygon points="1647.31 832.537 1642.31 833.787 1642.31 831.287 " stroke="#000000" stroke-width="1.000000px" fill="#000000" />
			<path fill="none" d=" M802.537,1407.61 L802.537,904.328 M802.537,904.328 L1607.31,904.328 M1607.31,904.328 L1607.31,837.015 M1607.31,837.015 L1647.31,832.537" stroke="#000000" stroke-width="1.000000px" />
		</g>
		<g>
			<polygon points="1178.06 934.328 1173.06 935.578 1173.06 933.078 " stroke="#000000" stroke-width="1.000000px" fill="#000000" />
			<path fill="none" d=" M803.433,1408.21 L823.433,1408.21 M823.433,1408.21 L823.433,938.806 M823.433,938.806 L1178.06,934.328" stroke="#000000" stroke-width="1.000000px" />
		</g>
		<g>
			<polygon points="1719.1 521.642 1717.85 516.642 1720.35 516.642 " stroke="#000000" stroke-width="1.000000px" fill="#000000" />
			<path fill="none" d=" M797.91,1407.61 L797.91,501.642 M797.91,501.642 L1710,501.642 M1710,501.642 L1719.1,521.642" stroke="#000000" stroke-width="1.000000px" />
		</g>
		<g>
			<polygon points="2276.42 1655.82 2271.42 1657.07 2271.42 1654.57 " stroke="#000000" stroke-width="1.000000px" fill="#000000" />
			<path fill="none" d=" M802.537,1427.61 L802.537,1465.22 M802.537,1465.22 L984.328,1465.22 M984.328,1465.22 L984.328,1657.91 M984.328,1657.91 L2276.42,1655.82" stroke="#000000" stroke-width="1.000000px" />
		</g>
		<g>
			<polygon points="1719.1 521.642 1717.85 516.642 1720.35 516.642 " stroke="#000000" stroke-width="1.000000px" fill="#000000" />
			<path fill="none" d=" M380,1164.33 L380,461.642 M380,461.642 L1714.63,461.642 M1714.63,461.642 L1719.1,521.642" stroke="#000000" stroke-width="1.000000px" />
		</g>
		<g>
			<polygon points="2276.42 1655.82 2271.42 1657.07 2271.42 1654.57 " stroke="#000000" stroke-width="1.000000px" fill="#000000" />
			<path fill="none" d=" M370.597,1164.33 L370.597,340.896 M370.597,340.896 L381.791,340.896 M381.791,340.896 L381.791,200.896 M381.791,200.896 L2256.42,200.896 M2256.42,200.896 L2256.42,1645.97 M2256.42,1645.97 L2276.42,1655.82" stroke="#000000" stroke-width="1.000000px" />
		</g>
		<g>
			<polygon points="783.433 1417.61 778.433 1418.86 778.433 1416.36 " stroke="#000000" stroke-width="1.000000px" fill="#000000" />
			<path fill="none" d=" M380.896,1183.43 L743.433,1183.43 M743.433,1183.43 L743.433,1413.13 M743.433,1413.13 L783.433,1417.61" stroke="#000000" stroke-width="1.000000px" />
		</g>
		<g>
			<polygon points="933.433 1405.22 932.183 1400.22 934.683 1400.22 " stroke="#000000" stroke-width="1.000000px" fill="#000000" />
			<path fill="none" d=" M923.731,381.642 L933.433,1405.22" stroke="#000000" stroke-width="1.000000px" />
		</g>
		<g>
			<polygon points="2036.42 820.149 2041.42 818.899 2041.42 821.399 " stroke="#000000" stroke-width="1.000000px" fill="#000000" />
			<path fill="none" d=" M924.627,376.119 L964.627,376.119 M964.627,376.119 L964.627,360.746 M964.627,360.746 L2056.42,360.746 M2056.42,360.746 L2056.42,811.045 M2056.42,811.045 L2036.42,820.149" stroke="#000000" stroke-width="1.000000px" />
		</g>
		<g>
			<polygon points="2276.42 1655.82 2271.42 1657.07 2271.42 1654.57 " stroke="#000000" stroke-width="1.000000px" fill="#000000" />
			<path fill="none" d=" M924.627,362.537 L944.627,362.537 M944.627,362.537 L944.627,340.746 M944.627,340.746 L2236.42,340.746 M2236.42,340.746 L2236.42,1647.46 M2236.42,1647.46 L2276.42,1655.82" stroke="#000000" stroke-width="1.000000px" />
		</g>
		<g>
			<polygon points="793.433 1407.61 792.183 1402.61 794.683 1402.61 " stroke="#000000" stroke-width="1.000000px" fill="#000000" />
			<path fill="none" d=" M914.925,381.642 L914.925,441.642 M914.925,441.642 L788.507,441.642 M788.507,441.642 L793.433,1407.61" stroke="#000000" stroke-width="1.000000px" />
		</g>
		<g>
			<polygon points="370.896 1164.33 369.646 1159.33 372.146 1159.33 " stroke="#000000" stroke-width="1.000000px" fill="#000000" />
			<path fill="none" d=" M904.627,367.015 L683.433,367.015 M683.433,367.015 L683.433,360.896 M683.433,360.896 L375.224,360.896 M375.224,360.896 L370.896,1164.33" stroke="#000000" stroke-width="1.000000px" />
		</g>
		<g>
			<polygon points="2286.42 1645.82 2285.17 1640.82 2287.67 1640.82 " stroke="#000000" stroke-width="1.000000px" fill="#000000" />
			<path fill="none" d=" M224.925,1265.22 L224.925,20 M224.925,20 L2336.42,20 M2336.42,20 L2336.42,1625.82 M2336.42,1625.82 L2286.42,1625.82 M2286.42,1625.82 L2286.42,1645.82" stroke="#000000" stroke-width="1.000000px" />
		</g>
		<g>
			<polygon points="783.433 1417.61 778.433 1418.86 778.433 1416.36 " stroke="#000000" stroke-width="1.000000px" fill="#000000" />
			<path fill="none" d=" M239.104,1265.22 L239.104,300.896 M239.104,300.896 L663.433,300.896 M663.433,300.896 L663.433,1163.43 M663.433,1163.43 L763.433,1163.43 M763.433,1163.43 L763.433,1408.51 M763.433,1408.51 L783.433,1417.61" stroke="#000000" stroke-width="1.000000px" />
		</g>
		<g>
			<polygon points="360.896 1174.33 355.896 1175.58 355.896 1173.08 " stroke="#000000" stroke-width="1.000000px" fill="#000000" />
			<path fill="none" d=" M240,1266.12 L260,1266.12 M260,1266.12 L260,1183.43 M260,1183.43 L360.896,1174.33" stroke="#000000" stroke-width="1.000000px" />
		</g>
		<g>
			<polygon points="914.627 361.642 913.377 356.642 915.877 356.642 " stroke="#000000" stroke-width="1.000000px" fill="#000000" />
			<path fill="none" d=" M234.328,1265.22 L234.328,280.896 M234.328,280.896 L905.522,280.896 M905.522,280.896 L914.627,361.642" stroke="#000000" stroke-width="1.000000px" />
		</g>
		<g>
			<polygon points="2286.42 1665.82 2287.67 1670.82 2285.17 1670.82 " stroke="#000000" stroke-width="1.000000px" fill="#000000" />
			<path fill="none" d=" M120,1293.43 L80,1293.43 M80,1293.43 L80,1986.12 M80,1986.12 L2286.42,1986.12 M2286.42,1986.12 L2286.42,1665.82" stroke="#000000" stroke-width="1.000000px" />
		</g>
		<g>
			<polygon points="914.627 361.642 913.377 356.642 915.877 356.642 " stroke="#000000" stroke-width="1.000000px" fill="#000000" />
			<path fill="none" d=" M139.104,1283.43 L139.104,240.896 M139.104,240.896 L910.299,240.896 M910.299,240.896 L914.627,361.642" stroke="#000000" stroke-width="1.000000px" />
		</g>
		<g>
			<polygon points="220 1275.22 215 1276.47 215 1273.97 " stroke="#000000" stroke-width="1.000000px" fill="#000000" />
			<path fill="none" d=" M140,1284.33 L220,1275.22" stroke="#000000" stroke-width="1.000000px" />
		</g>
		<g>
			<polygon points="2276.42 1655.82 2271.42 1657.07 2271.42 1654.57 " stroke="#000000" stroke-width="1.000000px" fill="#000000" />
			<path fill="none" d=" M602.687,1661.04 L2276.42,1655.82" stroke="#000000" stroke-width="1.000000px" />
		</g>
		<g>
			<polygon points="793.433 1427.61 794.683 1432.61 792.183 1432.61 " stroke="#000000" stroke-width="1.000000px" fill="#000000" />
			<path fill="none" d=" M602.687,1651.64 L804.328,1651.64 M804.328,1651.64 L804.328,1485.22 M804.328,1485.22 L797.91,1485.22 M797.91,1485.22 L793.433,1427.61" stroke="#000000" stroke-width="1.000000px" />
		</g>
		<g>
			<polygon points="370.896 1184.33 372.146 1189.33 369.646 1189.33 " stroke="#000000" stroke-width="1.000000px" fill="#000000" />
			<path fill="none" d=" M601.791,1646.12 L601.791,1626.12 M601.791,1626.12 L623.433,1626.12 M623.433,1626.12 L623.433,1204.33 M623.433,1204.33 L380,1204.33 M380,1204.33 L370.896,1184.33" stroke="#000000" stroke-width="1.000000px" />
		</g>
		<g>
			<polygon points="914.627 381.642 915.877 386.642 913.377 386.642 " stroke="#000000" stroke-width="1.000000px" fill="#000000" />
			<path fill="none" d=" M602.687,1647.01 L703.433,1647.01 M703.433,1647.01 L703.433,421.642 M703.433,421.642 L910.299,421.642 M910.299,421.642 L914.627,381.642" stroke="#000000" stroke-width="1.000000px" />
		</g>
		<g>
			<polygon points="220 1275.22 215 1276.47 215 1273.97 " stroke="#000000" stroke-width="1.000000px" fill="#000000" />
			<path fill="none" d=" M597.015,1666.12 L597.015,1706.12 M597.015,1706.12 L624.179,1706.12 M624.179,1706.12 L624.179,1946.12 M624.179,1946.12 L60,1946.12 M60,1946.12 L60,1243.43 M60,1243.43 L200,1243.43 M200,1243.43 L200,1266.12 M200,1266.12 L220,1275.22" stroke="#000000" stroke-width="1.000000px" />
		</g>
		<g>
			<polygon points="120 1293.43 115 1294.68 115 1292.18 " stroke="#000000" stroke-width="1.000000px" fill="#000000" />
			<path fill="none" d=" M592.388,1666.12 L592.388,1726.12 M592.388,1726.12 L604.179,1726.12 M604.179,1726.12 L604.179,1926.12 M604.179,1926.12 L100,1926.12 M100,1926.12 L100,1302.54 M100,1302.54 L120,1293.43" stroke="#000000" stroke-width="1.000000px" />
		</g>
		<g>
			<polygon points="1719.1 521.642 1717.85 516.642 1720.35 516.642 " stroke="#000000" stroke-width="1.000000px" fill="#000000" />
			<path fill="none" d=" M297.164,80.8955 L297.164,120.896 M297.164,120.896 L1719.4,120.896 M1719.4,120.896 L1719.1,521.642" stroke="#000000" stroke-width="1.000000px" />
		</g>
		<g>
			<polygon points="2286.42 1645.82 2285.17 1640.82 2287.67 1640.82 " stroke="#000000" stroke-width="1.000000px" fill="#000000" />
			<path fill="none" d=" M299.851,80.8955 L299.851,100.896 M299.851,100.896 L2277.31,100.896 M2277.31,100.896 L2286.42,1645.82" stroke="#000000" stroke-width="1.000000px" />
		</g>
		<g>
			<polygon points="793.433 1407.61 792.183 1402.61 794.683 1402.61 " stroke="#000000" stroke-width="1.000000px" fill="#000000" />
			<path fill="none" d=" M294.478,80.8955 L294.478,140.896 M294.478,140.896 L984.627,140.896 M984.627,140.896 L984.627,481.642 M984.627,481.642 L793.134,481.642 M793.134,481.642 L793.433,1407.61" stroke="#000000" stroke-width="1.000000px" />
		</g>
		<g>
			<polygon points="370.896 1164.33 369.646 1159.33 372.146 1159.33 " stroke="#000000" stroke-width="1.000000px" fill="#000000" />
			<path fill="none" d=" M289.104,80.8955 L289.104,180.896 M289.104,180.896 L361.791,180.896 M361.791,180.896 L370.896,1164.33" stroke="#000000" stroke-width="1.000000px" />
		</g>
		<g>
			<polygon points="914.627 361.642 913.377 356.642 915.877 356.642 " stroke="#000000" stroke-width="1.000000px" fill="#000000" />
			<path fill="none" d=" M291.791,80.8955 L291.791,160.896 M291.791,160.896 L903.731,160.896 M903.731,160.896 L903.731,220.896 M903.731,220.896 L914.925,220.896 M914.925,220.896 L914.627,361.642" stroke="#000000" stroke-width="1.000000px" />
		</g>
		<g>
			<polygon points="230 1265.22 228.75 1260.22 231.25 1260.22 " stroke="#000000" stroke-width="1.000000px" fill="#000000" />
			<path fill="none" d=" M280.896,80.8955 L280.896,260.896 M280.896,260.896 L229.701,260.896 M229.701,260.896 L230,1265.22" stroke="#000000" stroke-width="1.000000px" />
		</g>
		<g>
			<polygon points="130 1283.43 128.75 1278.43 131.25 1278.43 " stroke="#000000" stroke-width="1.000000px" fill="#000000" />
			<path fill="none" d=" M280.299,80 L119.104,80 M119.104,80 L119.104,1263.43 M119.104,1263.43 L120.896,1263.43 M120.896,1263.43 L130,1283.43" stroke="#000000" stroke-width="1.000000px" />
		</g>
		<g>
			<polygon points="592.687 1666.12 593.937 1671.12 591.437 1671.12 " stroke="#000000" stroke-width="1.000000px" fill="#000000" />
			<path fill="none" d=" M300.299,70.8955 L2356.42,70.8955 M2356.42,70.8955 L2356.42,1907.01 M2356.42,1907.01 L644.179,1907.01 M644.179,1907.01 L644.179,1686.12 M644.179,1686.12 L601.791,1686.12 M601.791,1686.12 L592.687,1666.12" stroke="#000000" stroke-width="1.000000px" />
		</g>
		<g>
			<polygon points="2276.42 1655.82 2271.42 1657.07 2271.42 1654.57 " stroke="#000000" stroke-width="1.000000px" fill="#000000" />
			<path fill="none" d=" M520.896,1385.22 L520.896,1405.22 M520.896,1405.22 L603.433,1405.22 M603.433,1405.22 L603.433,1505.22 M603.433,1505.22 L964.328,1505.22 M964.328,1505.22 L964.328,1659.4 M964.328,1659.4 L2276.42,1655.82" stroke="#000000" stroke-width="1.000000px" />
		</g>
		<g>
			<polygon points="783.433 1417.61 778.433 1418.86 778.433 1416.36 " stroke="#000000" stroke-width="1.000000px" fill="#000000" />
			<path fill="none" d=" M521.791,1384.33 L723.433,1384.33 M723.433,1384.33 L723.433,1417.91 M723.433,1417.91 L783.433,1417.61" stroke="#000000" stroke-width="1.000000px" />
		</g>
		<g>
			<polygon points="370.896 1184.33 372.146 1189.33 369.646 1189.33 " stroke="#000000" stroke-width="1.000000px" fill="#000000" />
			<path fill="none" d=" M521.791,1366.12 L541.791,1366.12 M541.791,1366.12 L541.791,1224.33 M541.791,1224.33 L375.224,1224.33 M375.224,1224.33 L370.896,1184.33" stroke="#000000" stroke-width="1.000000px" />
		</g>
		<g>
			<polygon points="904.627 371.642 899.627 372.892 899.627 370.392 " stroke="#000000" stroke-width="1.000000px" fill="#000000" />
			<path fill="none" d=" M521.791,1370.9 L603.433,1370.9 M603.433,1370.9 L603.433,1364.33 M603.433,1364.33 L643.433,1364.33 M643.433,1364.33 L643.433,380.896 M643.433,380.896 L904.627,371.642" stroke="#000000" stroke-width="1.000000px" />
		</g>
		<g>
			<polygon points="240 1275.22 245 1273.97 245 1276.47 " stroke="#000000" stroke-width="1.000000px" fill="#000000" />
			<path fill="none" d=" M507.313,1365.22 L507.313,1284.33 M507.313,1284.33 L240,1275.22" stroke="#000000" stroke-width="1.000000px" />
		</g>
		<g>
			<polygon points="140 1293.43 145 1292.18 145 1294.68 " stroke="#000000" stroke-width="1.000000px" fill="#000000" />
			<path fill="none" d=" M502.687,1365.22 L502.687,1345.22 M502.687,1345.22 L200,1345.22 M200,1345.22 L200,1293.13 M200,1293.13 L140,1293.43" stroke="#000000" stroke-width="1.000000px" />
		</g>
		<g>
			<polygon points="592.687 1646.12 591.437 1641.12 593.937 1641.12 " stroke="#000000" stroke-width="1.000000px" fill="#000000" />
			<path fill="none" d=" M516.119,1385.22 L516.119,1425.22 M516.119,1425.22 L583.433,1425.22 M583.433,1425.22 L592.687,1646.12" stroke="#000000" stroke-width="1.000000px" />
		</g>
		<g>
			<polygon points="290.299 80.8955 291.549 85.8955 289.049 85.8955 " stroke="#000000" stroke-width="1.000000px" fill="#000000" />
			<path fill="none" d=" M512.09,1365.22 L512.09,1264.33 M512.09,1264.33 L340.896,1264.33 M340.896,1264.33 L340.896,200.896 M340.896,200.896 L286.418,200.896 M286.418,200.896 L290.299,80.8955" stroke="#000000" stroke-width="1.000000px" />
		</g>
		<g>
			<polygon points="933.433 1425.22 934.683 1430.22 932.183 1430.22 " stroke="#000000" stroke-width="1.000000px" fill="#000000" />
			<path fill="none" d=" M362.687,1576.72 L422.687,1576.72 M422.687,1576.72 L422.687,1525.22 M422.687,1525.22 L643.433,1525.22 M643.433,1525.22 L643.433,1626.12 M643.433,1626.12 L924.328,1626.12 M924.328,1626.12 L933.433,1425.22" stroke="#000000" stroke-width="1.000000px" />
		</g>
		<g>
			<polygon points="2276.42 1655.82 2271.42 1657.07 2271.42 1654.57 " stroke="#000000" stroke-width="1.000000px" fill="#000000" />
			<path fill="none" d=" M361.791,1586.87 L361.791,1766.12 M361.791,1766.12 L684.179,1766.12 M684.179,1766.12 L684.179,1664.03 M684.179,1664.03 L2276.42,1655.82" stroke="#000000" stroke-width="1.000000px" />
		</g>
		<g>
			<polygon points="783.433 1417.61 778.433 1418.86 778.433 1416.36 " stroke="#000000" stroke-width="1.000000px" fill="#000000" />
			<path fill="none" d=" M362.687,1572.24 L402.687,1572.24 M402.687,1572.24 L402.687,1465.22 M402.687,1465.22 L763.433,1465.22 M763.433,1465.22 L763.433,1426.72 M763.433,1426.72 L783.433,1417.61" stroke="#000000" stroke-width="1.000000px" />
		</g>
		<g>
			<polygon points="370.896 1184.33 372.146 1189.33 369.646 1189.33 " stroke="#000000" stroke-width="1.000000px" fill="#000000" />
			<path fill="none" d=" M361.791,1566.87 L370.896,1184.33" stroke="#000000" stroke-width="1.000000px" />
		</g>
		<g>
			<polygon points="904.627 371.642 899.627 372.892 899.627 370.392 " stroke="#000000" stroke-width="1.000000px" fill="#000000" />
			<path fill="none" d=" M342.687,1567.76 L320.896,1567.76 M320.896,1567.76 L320.896,320.896 M320.896,320.896 L703.433,320.896 M703.433,320.896 L703.433,362.537 M703.433,362.537 L904.627,371.642" stroke="#000000" stroke-width="1.000000px" />
		</g>
		<g>
			<polygon points="230 1285.22 231.25 1290.22 228.75 1290.22 " stroke="#000000" stroke-width="1.000000px" fill="#000000" />
			<path fill="none" d=" M342.687,1577.16 L280.896,1577.16 M280.896,1577.16 L280.896,1305.22 M280.896,1305.22 L239.104,1305.22 M239.104,1305.22 L230,1285.22" stroke="#000000" stroke-width="1.000000px" />
		</g>
		<g>
			<polygon points="140 1293.43 145 1292.18 145 1294.68 " stroke="#000000" stroke-width="1.000000px" fill="#000000" />
			<path fill="none" d=" M342.687,1581.94 L180,1581.94 M180,1581.94 L180,1297.91 M180,1297.91 L140,1293.43" stroke="#000000" stroke-width="1.000000px" />
		</g>
		<g>
			<polygon points="582.687 1656.12 577.687 1657.37 577.687 1654.87 " stroke="#000000" stroke-width="1.000000px" fill="#000000" />
			<path fill="none" d=" M362.687,1581.19 L442.687,1581.19 M442.687,1581.19 L442.687,1545.22 M442.687,1545.22 L522.687,1545.22 M522.687,1545.22 L522.687,1645.22 M522.687,1645.22 L562.687,1645.22 M562.687,1645.22 L562.687,1647.01 M562.687,1647.01 L582.687,1656.12" stroke="#000000" stroke-width="1.000000px" />
		</g>
		<g>
			<polygon points="290.299 80.8955 291.549 85.8955 289.049 85.8955 " stroke="#000000" stroke-width="1.000000px" fill="#000000" />
			<path fill="none" d=" M342.687,1572.54 L300.896,1572.54 M300.896,1572.54 L300.896,220.896 M300.896,220.896 L283.731,220.896 M283.731,220.896 L290.299,80.8955" stroke="#000000" stroke-width="1.000000px" />
		</g>
		<g>
			<polygon points="501.791 1375.22 496.791 1376.47 496.791 1373.97 " stroke="#000000" stroke-width="1.000000px" fill="#000000" />
			<path fill="none" d=" M362.687,1567.76 L382.687,1567.76 M382.687,1567.76 L382.687,1384.33 M382.687,1384.33 L501.791,1375.22" stroke="#000000" stroke-width="1.000000px" />
		</g>
		<g>
			<polygon points="2276.42 1655.82 2271.42 1657.07 2271.42 1654.57 " stroke="#000000" stroke-width="1.000000px" fill="#000000" />
			<path fill="none" d=" M477.015,1605.22 L477.015,1746.12 M477.015,1746.12 L664.179,1746.12 M664.179,1746.12 L664.179,1662.54 M664.179,1662.54 L2276.42,1655.82" stroke="#000000" stroke-width="1.000000px" />
		</g>
		<g>
			<polygon points="793.433 1427.61 794.683 1432.61 792.183 1432.61 " stroke="#000000" stroke-width="1.000000px" fill="#000000" />
			<path fill="none" d=" M482.687,1604.33 L502.687,1604.33 M502.687,1604.33 L502.687,1606.12 M502.687,1606.12 L784.328,1606.12 M784.328,1606.12 L793.433,1427.61" stroke="#000000" stroke-width="1.000000px" />
		</g>
		<g>
			<polygon points="370.896 1184.33 372.146 1189.33 369.646 1189.33 " stroke="#000000" stroke-width="1.000000px" fill="#000000" />
			<path fill="none" d=" M463.582,1585.22 L463.582,1244.33 M463.582,1244.33 L370.597,1244.33 M370.597,1244.33 L370.896,1184.33" stroke="#000000" stroke-width="1.000000px" />
		</g>
		<g>
			<polygon points="914.627 381.642 915.877 386.642 913.377 386.642 " stroke="#000000" stroke-width="1.000000px" fill="#000000" />
			<path fill="none" d=" M482.687,1586.12 L562.687,1586.12 M562.687,1586.12 L562.687,1485.22 M562.687,1485.22 L683.433,1485.22 M683.433,1485.22 L683.433,401.642 M683.433,401.642 L905.522,401.642 M905.522,401.642 L914.627,381.642" stroke="#000000" stroke-width="1.000000px" />
		</g>
		<g>
			<polygon points="230 1285.22 231.25 1290.22 228.75 1290.22 " stroke="#000000" stroke-width="1.000000px" fill="#000000" />
			<path fill="none" d=" M462.687,1594.93 L382.687,1594.93 M382.687,1594.93 L382.687,1626.87 M382.687,1626.87 L240.896,1626.87 M240.896,1626.87 L240.896,1325.22 M240.896,1325.22 L234.328,1325.22 M234.328,1325.22 L230,1285.22" stroke="#000000" stroke-width="1.000000px" />
		</g>
		<g>
			<polygon points="140 1293.43 145 1292.18 145 1294.68 " stroke="#000000" stroke-width="1.000000px" fill="#000000" />
			<path fill="none" d=" M462.687,1599.55 L402.687,1599.55 M402.687,1599.55 L402.687,1646.87 M402.687,1646.87 L160,1646.87 M160,1646.87 L160,1302.54 M160,1302.54 L140,1293.43" stroke="#000000" stroke-width="1.000000px" />
		</g>
		<g>
			<polygon points="582.687 1656.12 577.687 1657.37 577.687 1654.87 " stroke="#000000" stroke-width="1.000000px" fill="#000000" />
			<path fill="none" d=" M481.791,1605.22 L481.791,1665.22 M481.791,1665.22 L582.687,1656.12" stroke="#000000" stroke-width="1.000000px" />
		</g>
		<g>
			<polygon points="280.299 70.8955 275.299 72.1455 275.299 69.6455 " stroke="#000000" stroke-width="1.000000px" fill="#000000" />
			<path fill="none" d=" M462.687,1604.33 L422.687,1604.33 M422.687,1604.33 L422.687,1666.87 M422.687,1666.87 L40,1666.87 M40,1666.87 L40,60 M40,60 L260.299,60 M260.299,60 L260.299,61.791 M260.299,61.791 L280.299,70.8955" stroke="#000000" stroke-width="1.000000px" />
		</g>
		<g>
			<polygon points="511.791 1385.22 513.041 1390.22 510.541 1390.22 " stroke="#000000" stroke-width="1.000000px" fill="#000000" />
			<path fill="none" d=" M481.791,1585.22 L481.791,1565.22 M481.791,1565.22 L502.687,1565.22 M502.687,1565.22 L511.791,1385.22" stroke="#000000" stroke-width="1.000000px" />
		</g>
		<g>
			<polygon points="362.687 1576.87 367.687 1575.62 367.687 1578.12 " stroke="#000000" stroke-width="1.000000px" fill="#000000" />
			<path fill="none" d=" M462.687,1586.12 L362.687,1576.87" stroke="#000000" stroke-width="1.000000px" />
		</g>
		<g>
			<polygon points="2276.42 1655.82 2271.42 1657.07 2271.42 1654.57 " stroke="#000000" stroke-width="1.000000px" fill="#000000" />
			<path fill="none" d=" M584.179,1887.01 L704.179,1887.01 M704.179,1887.01 L704.179,1665.52 M704.179,1665.52 L2276.42,1655.82" stroke="#000000" stroke-width="1.000000px" />
		</g>
		<g>
			<polygon points="914.627 361.642 913.377 356.642 915.877 356.642 " stroke="#000000" stroke-width="1.000000px" fill="#000000" />
			<path fill="none" d=" M574.179,1906.12 L574.179,1966.12 M574.179,1966.12 L2316.42,1966.12 M2316.42,1966.12 L2316.42,180.896 M2316.42,180.896 L923.731,180.896 M923.731,180.896 L914.627,361.642" stroke="#000000" stroke-width="1.000000px" />
		</g>
		<g>
			<polygon points="230 1285.22 231.25 1290.22 228.75 1290.22 " stroke="#000000" stroke-width="1.000000px" fill="#000000" />
			<path fill="none" d=" M568.507,1886.12 L568.507,1846.12 M568.507,1846.12 L220.896,1846.12 M220.896,1846.12 L230,1285.22" stroke="#000000" stroke-width="1.000000px" />
		</g>
		<g>
			<polygon points="130 1303.43 131.25 1308.43 128.75 1308.43 " stroke="#000000" stroke-width="1.000000px" fill="#000000" />
			<path fill="none" d=" M564.925,1886.12 L564.925,1866.12 M564.925,1866.12 L139.104,1866.12 M139.104,1866.12 L130,1303.43" stroke="#000000" stroke-width="1.000000px" />
		</g>
		<g>
			<polygon points="592.687 1666.12 593.937 1671.12 591.437 1671.12 " stroke="#000000" stroke-width="1.000000px" fill="#000000" />
			<path fill="none" d=" M583.582,1886.12 L592.687,1666.12" stroke="#000000" stroke-width="1.000000px" />
		</g>
		<g>
			<polygon points="290.299 60.8955 289.049 55.8955 291.549 55.8955 " stroke="#000000" stroke-width="1.000000px" fill="#000000" />
			<path fill="none" d=" M564.179,1896.12 L20,1896.12 M20,1896.12 L20,40 M20,40 L290.299,40 M290.299,40 L290.299,60.8955" stroke="#000000" stroke-width="1.000000px" />
		</g>
		<g>
			<polygon points="511.791 1385.22 513.041 1390.22 510.541 1390.22 " stroke="#000000" stroke-width="1.000000px" fill="#000000" />
			<path fill="none" d=" M579.552,1886.12 L579.552,1786.12 M579.552,1786.12 L542.687,1786.12 M542.687,1786.12 L542.687,1445.22 M542.687,1445.22 L511.493,1445.22 M511.493,1445.22 L511.791,1385.22" stroke="#000000" stroke-width="1.000000px" />
		</g>
		<g>
			<polygon points="352.687 1586.87 353.937 1591.87 351.437 1591.87 " stroke="#000000" stroke-width="1.000000px" fill="#000000" />
			<path fill="none" d=" M572.239,1886.12 L572.239,1826.12 M572.239,1826.12 L341.791,1826.12 M341.791,1826.12 L341.791,1606.87 M341.791,1606.87 L357.015,1606.87 M357.015,1606.87 L352.687,1586.87" stroke="#000000" stroke-width="1.000000px" />
		</g>
		<g>
			<polygon points="472.687 1605.22 473.937 1610.22 471.437 1610.22 " stroke="#000000" stroke-width="1.000000px" fill="#000000" />
			<path fill="none" d=" M575.821,1886.12 L575.821,1806.12 M575.821,1806.12 L472.388,1806.12 M472.388,1806.12 L472.687,1605.22" stroke="#000000" stroke-width="1.000000px" />
		</g>
		<g>
			<polygon points="933.433 1405.22 932.183 1400.22 934.683 1400.22 " stroke="#000000" stroke-width="1.000000px" fill="#000000" />
			<path fill="none" d=" M1856.42,606.418 L1896.42,606.418 M1896.42,606.418 L1896.42,599.851 M1896.42,599.851 L2096.42,599.851 M2096.42,599.851 L2096.42,1365.22 M2096.42,1365.22 L941.194,1365.22 M941.194,1365.22 L933.433,1405.22" stroke="#000000" stroke-width="1.000000px" />
		</g>
		<g>
			<polygon points="1567.31 814.328 1572.31 813.078 1572.31 815.578 " stroke="#000000" stroke-width="1.000000px" fill="#000000" />
			<path fill="none" d=" M1842.09,620.746 L1842.09,661.642 M1842.09,661.642 L1835.52,661.642 M1835.52,661.642 L1835.52,722.537 M1835.52,722.537 L1607.31,722.537 M1607.31,722.537 L1607.31,810 M1607.31,810 L1567.31,814.328" stroke="#000000" stroke-width="1.000000px" />
		</g>
		<g>
			<polygon points="1657.31 822.537 1656.06 817.537 1658.56 817.537 " stroke="#000000" stroke-width="1.000000px" fill="#000000" />
			<path fill="none" d=" M1855.52,620.746 L1855.52,782.537 M1855.52,782.537 L1661.64,782.537 M1661.64,782.537 L1657.31,822.537" stroke="#000000" stroke-width="1.000000px" />
		</g>
		<g>
			<polygon points="2016.42 820.149 2011.42 821.399 2011.42 818.899 " stroke="#000000" stroke-width="1.000000px" fill="#000000" />
			<path fill="none" d=" M1856.42,619.851 L1996.42,619.851 M1996.42,619.851 L1996.42,810.746 M1996.42,810.746 L2016.42,820.149" stroke="#000000" stroke-width="1.000000px" />
		</g>
		<g>
			<polygon points="1729.1 531.642 1734.1 530.392 1734.1 532.892 " stroke="#000000" stroke-width="1.000000px" fill="#000000" />
			<path fill="none" d=" M1837.31,600.746 L1837.31,540.746 M1837.31,540.746 L1729.1,531.642" stroke="#000000" stroke-width="1.000000px" />
		</g>
		<g>
			<polygon points="2276.42 1655.82 2271.42 1657.07 2271.42 1654.57 " stroke="#000000" stroke-width="1.000000px" fill="#000000" />
			<path fill="none" d=" M1856.42,601.642 L1876.42,601.642 M1876.42,601.642 L1876.42,579.851 M1876.42,579.851 L2176.42,579.851 M2176.42,579.851 L2176.42,1651.94 M2176.42,1651.94 L2276.42,1655.82" stroke="#000000" stroke-width="1.000000px" />
		</g>
		<g>
			<polygon points="933.433 1405.22 932.183 1400.22 934.683 1400.22 " stroke="#000000" stroke-width="1.000000px" fill="#000000" />
			<path fill="none" d=" M1775.52,672.836 L1688.21,672.836 M1688.21,672.836 L1688.21,661.642 M1688.21,661.642 L1104.63,661.642 M1104.63,661.642 L1104.63,1225.22 M1104.63,1225.22 L928.209,1225.22 M928.209,1225.22 L933.433,1405.22" stroke="#000000" stroke-width="1.000000px" />
		</g>
		<g>
			<polygon points="1567.31 814.328 1572.31 813.078 1572.31 815.578 " stroke="#000000" stroke-width="1.000000px" fill="#000000" />
			<path fill="none" d=" M1775.52,681.642 L1587.31,681.642 M1587.31,681.642 L1587.31,805.224 M1587.31,805.224 L1567.31,814.328" stroke="#000000" stroke-width="1.000000px" />
		</g>
		<g>
			<polygon points="1657.31 822.537 1656.06 817.537 1658.56 817.537 " stroke="#000000" stroke-width="1.000000px" fill="#000000" />
			<path fill="none" d=" M1776.42,682.537 L1776.42,762.537 M1776.42,762.537 L1657.01,762.537 M1657.01,762.537 L1657.31,822.537" stroke="#000000" stroke-width="1.000000px" />
		</g>
		<g>
			<polygon points="2016.42 820.149 2011.42 821.399 2011.42 818.899 " stroke="#000000" stroke-width="1.000000px" fill="#000000" />
			<path fill="none" d=" M1795.52,681.642 L1976.42,681.642 M1976.42,681.642 L1976.42,813.881 M1976.42,813.881 L2016.42,820.149" stroke="#000000" stroke-width="1.000000px" />
		</g>
		<g>
			<polygon points="1719.1 541.642 1720.35 546.642 1717.85 546.642 " stroke="#000000" stroke-width="1.000000px" fill="#000000" />
			<path fill="none" d=" M1775.52,663.433 L1728.21,663.433 M1728.21,663.433 L1719.1,541.642" stroke="#000000" stroke-width="1.000000px" />
		</g>
		<g>
			<polygon points="2276.42 1655.82 2271.42 1657.07 2271.42 1654.57 " stroke="#000000" stroke-width="1.000000px" fill="#000000" />
			<path fill="none" d=" M1785.22,662.537 L1785.22,642.537 M1785.22,642.537 L1769.1,642.537 M1769.1,642.537 L1769.1,400.746 M1769.1,400.746 L2216.42,400.746 M2216.42,400.746 L2216.42,1648.96 M2216.42,1648.96 L2276.42,1655.82" stroke="#000000" stroke-width="1.000000px" />
		</g>
		<g>
			<polygon points="1846.42 620.746 1847.67 625.746 1845.17 625.746 " stroke="#000000" stroke-width="1.000000px" fill="#000000" />
			<path fill="none" d=" M1794.63,662.537 L1794.63,640.746 M1794.63,640.746 L1837.31,640.746 M1837.31,640.746 L1846.42,620.746" stroke="#000000" stroke-width="1.000000px" />
		</g>
		<g>
			<polygon points="933.433 1405.22 932.183 1400.22 934.683 1400.22 " stroke="#000000" stroke-width="1.000000px" fill="#000000" />
			<path fill="none" d=" M1025.52,560.149 L1025.52,1205.22 M1025.52,1205.22 L926.269,1205.22 M926.269,1205.22 L933.433,1405.22" stroke="#000000" stroke-width="1.000000px" />
		</g>
		<g>
			<polygon points="1547.31 814.328 1542.31 815.578 1542.31 813.078 " stroke="#000000" stroke-width="1.000000px" fill="#000000" />
			<path fill="none" d=" M1044.63,555.821 L1084.63,555.821 M1084.63,555.821 L1084.63,805.224 M1084.63,805.224 L1547.31,814.328" stroke="#000000" stroke-width="1.000000px" />
		</g>
		<g>
			<polygon points="1647.31 832.537 1642.31 833.787 1642.31 831.287 " stroke="#000000" stroke-width="1.000000px" fill="#000000" />
			<path fill="none" d=" M1044.63,559.403 L1064.63,559.403 M1064.63,559.403 L1064.63,884.328 M1064.63,884.328 L1587.31,884.328 M1587.31,884.328 L1587.31,832.239 M1587.31,832.239 L1647.31,832.537" stroke="#000000" stroke-width="1.000000px" />
		</g>
		<g>
			<polygon points="2016.42 820.149 2011.42 821.399 2011.42 818.899 " stroke="#000000" stroke-width="1.000000px" fill="#000000" />
			<path fill="none" d=" M1044.63,552.09 L1104.63,552.09 M1104.63,552.09 L1104.63,641.642 M1104.63,641.642 L1668.21,641.642 M1668.21,641.642 L1668.21,702.537 M1668.21,702.537 L1956.42,702.537 M1956.42,702.537 L1956.42,816.866 M1956.42,816.866 L2016.42,820.149" stroke="#000000" stroke-width="1.000000px" />
		</g>
		<g>
			<polygon points="1709.1 531.642 1704.1 532.892 1704.1 530.392 " stroke="#000000" stroke-width="1.000000px" fill="#000000" />
			<path fill="none" d=" M1044.63,540.746 L1709.1,531.642" stroke="#000000" stroke-width="1.000000px" />
		</g>
		<g>
			<polygon points="924.627 371.642 929.627 370.392 929.627 372.892 " stroke="#000000" stroke-width="1.000000px" fill="#000000" />
			<path fill="none" d=" M1024.63,550.149 L1004.63,550.149 M1004.63,550.149 L1004.63,380.746 M1004.63,380.746 L924.627,371.642" stroke="#000000" stroke-width="1.000000px" />
		</g>
		<g>
			<polygon points="1836.42 610.746 1831.42 611.996 1831.42 609.496 " stroke="#000000" stroke-width="1.000000px" fill="#000000" />
			<path fill="none" d=" M1044.63,544.776 L1144.63,544.776 M1144.63,544.776 L1144.63,601.642 M1144.63,601.642 L1836.42,610.746" stroke="#000000" stroke-width="1.000000px" />
		</g>
		<g>
			<polygon points="1775.52 672.537 1770.52 673.787 1770.52 671.287 " stroke="#000000" stroke-width="1.000000px" fill="#000000" />
			<path fill="none" d=" M1044.63,548.507 L1124.63,548.507 M1124.63,548.507 L1124.63,621.642 M1124.63,621.642 L1708.21,621.642 M1708.21,621.642 L1708.21,668.209 M1708.21,668.209 L1775.52,672.537" stroke="#000000" stroke-width="1.000000px" />
		</g>
		<g>
			<polygon points="933.433 1405.22 932.183 1400.22 934.683 1400.22 " stroke="#000000" stroke-width="1.000000px" fill="#000000" />
			<path fill="none" d=" M1809.1,459.851 L2116.42,459.851 M2116.42,459.851 L2116.42,1385.22 M2116.42,1385.22 L943.134,1385.22 M943.134,1385.22 L933.433,1405.22" stroke="#000000" stroke-width="1.000000px" />
		</g>
		<g>
			<polygon points="1657.31 822.537 1656.06 817.537 1658.56 817.537 " stroke="#000000" stroke-width="1.000000px" fill="#000000" />
			<path fill="none" d=" M1803.43,460.746 L1803.43,500.746 M1803.43,500.746 L1916.42,500.746 M1916.42,500.746 L1916.42,802.537 M1916.42,802.537 L1666.42,802.537 M1666.42,802.537 L1657.31,822.537" stroke="#000000" stroke-width="1.000000px" />
		</g>
		<g>
			<polygon points="2026.42 810.149 2025.17 805.149 2027.67 805.149 " stroke="#000000" stroke-width="1.000000px" fill="#000000" />
			<path fill="none" d=" M1808.21,460.746 L1808.21,480.746 M1808.21,480.746 L2017.31,480.746 M2017.31,480.746 L2026.42,810.149" stroke="#000000" stroke-width="1.000000px" />
		</g>
		<g>
			<polygon points="1729.1 531.642 1734.1 530.392 1734.1 532.892 " stroke="#000000" stroke-width="1.000000px" fill="#000000" />
			<path fill="none" d=" M1789.1,459.851 L1749.1,459.851 M1749.1,459.851 L1749.1,522.537 M1749.1,522.537 L1729.1,531.642" stroke="#000000" stroke-width="1.000000px" />
		</g>
		<g>
			<polygon points="2276.42 1655.82 2271.42 1657.07 2271.42 1654.57 " stroke="#000000" stroke-width="1.000000px" fill="#000000" />
			<path fill="none" d=" M1809.1,441.642 L1829.1,441.642 M1829.1,441.642 L1829.1,439.851 M1829.1,439.851 L2196.42,439.851 M2196.42,439.851 L2196.42,1650.45 M2196.42,1650.45 L2276.42,1655.82" stroke="#000000" stroke-width="1.000000px" />
		</g>
		<g>
			<polygon points="1846.42 600.746 1845.17 595.746 1847.67 595.746 " stroke="#000000" stroke-width="1.000000px" fill="#000000" />
			<path fill="none" d=" M1798.81,460.746 L1798.81,520.746 M1798.81,520.746 L1842.09,520.746 M1842.09,520.746 L1846.42,600.746" stroke="#000000" stroke-width="1.000000px" />
		</g>
		<g>
			<polygon points="1785.52 662.537 1784.27 657.537 1786.77 657.537 " stroke="#000000" stroke-width="1.000000px" fill="#000000" />
			<path fill="none" d=" M1790,460.746 L1785.52,662.537" stroke="#000000" stroke-width="1.000000px" />
		</g>
		<g>
			<polygon points="1034.63 540.149 1033.38 535.149 1035.88 535.149 " stroke="#000000" stroke-width="1.000000px" fill="#000000" />
			<path fill="none" d=" M1799.1,440.746 L1799.1,420.746 M1799.1,420.746 L1034.63,420.746 M1034.63,420.746 L1034.63,540.149" stroke="#000000" stroke-width="1.000000px" />
		</g>
		<g>
			<polygon points="602.687 1656.12 607.687 1654.87 607.687 1657.37 " stroke="#000000" stroke-width="1.000000px" fill="#000000" />
			<path fill="none" d=" M942.537,1425.22 L942.537,1445.22 M942.537,1445.22 L944.328,1445.22 M944.328,1445.22 L944.328,1656.42 M944.328,1656.42 L602.687,1656.12" stroke="#000000" stroke-width="1.000000px" />
		</g>
	</g>
	<g>
		<rect x="923.43283582089555" y="1405.2238805970151" width="20" height="20" fill="#FFFFFF" stroke-width="1.000000px" stroke="#000000" />
		<text x="933.43283582089555" y="1415.2238805970151" text-anchor="middle" dominant-baseline="middle" font-family="Arial" font-size="10" fill="#000000">18</text>
	</g>
	<g>
		<rect x="2276.4179104477612" y="1645.8208955223881" width="20" height="20" fill="#FFFFFF" stroke-width="1.000000px" stroke="#000000" />
		<text x="2286.4179104477612" y="1655.8208955223881" text-anchor="middle" dominant-baseline="middle" font-family="Arial" font-size="10" fill="#000000">10</text>
	</g>
	<g>
		<rect x="783.43283582089555" y="1407.6119402985075" width="20" height="20" fill="#FFFFFF" stroke-width="1.000000px" stroke="#000000" />
		<text x="793.43283582089555" y="1417.6119402985075" text-anchor="middle" dominant-baseline="middle" font-family="Arial" font-size="10" fill="#000000">13</text>
	</g>
	<g>
		<rect x="2016.4179104477612" y="810.14925373134338" width="20" height="20" fill="#FFFFFF" stroke-width="1.000000px" stroke="#000000" />
		<text x="2026.4179104477612" y="820.14925373134338" text-anchor="middle" dominant-baseline="middle" font-family="Arial" font-size="10" fill="#000000">19</text>
	</g>
	<g>
		<rect x="1647.313432835821" y="822.53731343283584" width="20" height="20" fill="#FFFFFF" stroke-width="1.000000px" stroke="#000000" />
		<text x="1657.313432835821" y="832.53731343283584" text-anchor="middle" dominant-baseline="middle" font-family="Arial" font-size="10" fill="#000000">16</text>
	</g>
	<g>
		<rect x="1565.5223880597014" y="1078.6567164179105" width="20" height="20" fill="#FFFFFF" stroke-width="1.000000px" stroke="#000000" />
		<text x="1575.5223880597014" y="1088.6567164179105" text-anchor="middle" dominant-baseline="middle" font-family="Arial" font-size="10" fill="#000000">23</text>
	</g>
	<g>
		<rect x="904.62686567164178" y="361.64179104477626" width="20" height="20" fill="#FFFFFF" stroke-width="1.000000px" stroke="#000000" />
		<text x="914.62686567164178" y="371.64179104477626" text-anchor="middle" dominant-baseline="middle" font-family="Arial" font-size="10" fill="#000000">4</text>
	</g>
	<g>
		<rect x="280.29850746268664" y="60.895522388059817" width="20" height="20" fill="#FFFFFF" stroke-width="1.000000px" stroke="#000000" />
		<text x="290.29850746268664" y="70.895522388059817" text-anchor="middle" dominant-baseline="middle" font-family="Arial" font-size="10" fill="#000000">25</text>
	</g>
	<g>
		<rect x="342.68656716417911" y="1566.8656716417911" width="20" height="20" fill="#FFFFFF" stroke-width="1.000000px" stroke="#000000" />
		<text x="352.68656716417911" y="1576.8656716417911" text-anchor="middle" dominant-baseline="middle" font-family="Arial" font-size="10" fill="#000000">22</text>
	</g>
	<g>
		<rect x="501.79104477611946" y="1365.2238805970151" width="20" height="20" fill="#FFFFFF" stroke-width="1.000000px" stroke="#000000" />
		<text x="511.79104477611946" y="1375.2238805970151" text-anchor="middle" dominant-baseline="middle" font-family="Arial" font-size="10" fill="#000000">30</text>
	</g>
	<g>
		<rect x="462.68656716417917" y="1585.2238805970151" width="20" height="20" fill="#FFFFFF" stroke-width="1.000000px" stroke="#000000" />
		<text x="472.68656716417917" y="1595.2238805970151" text-anchor="middle" dominant-baseline="middle" font-family="Arial" font-size="10" fill="#000000">5</text>
	</g>
	<g>
		<rect x="1547.313432835821" y="804.32835820895525" width="20" height="20" fill="#FFFFFF" stroke-width="1.000000px" stroke="#000000" />
		<text x="1557.313432835821" y="814.32835820895525" text-anchor="middle" dominant-baseline="middle" font-family="Arial" font-size="10" fill="#000000">11</text>
	</g>
	<g>
		<rect x="1178.0597014925374" y="924.32835820895525" width="20" height="20" fill="#FFFFFF" stroke-width="1.000000px" stroke="#000000" />
		<text x="1188.0597014925374" y="934.32835820895525" text-anchor="middle" dominant-baseline="middle" font-family="Arial" font-size="10" fill="#000000">8</text>
	</g>
	<g>
		<rect x="1709.1044776119402" y="521.64179104477614" width="20" height="20" fill="#FFFFFF" stroke-width="1.000000px" stroke="#000000" />
		<text x="1719.1044776119402" y="531.64179104477614" text-anchor="middle" dominant-baseline="middle" font-family="Arial" font-size="10" fill="#000000">2</text>
	</g>
	<g>
		<rect x="360.8955223880597" y="1164.3283582089553" width="20" height="20" fill="#FFFFFF" stroke-width="1.000000px" stroke="#000000" />
		<text x="370.8955223880597" y="1174.3283582089553" text-anchor="middle" dominant-baseline="middle" font-family="Arial" font-size="10" fill="#000000">17</text>
	</g>
	<g>
		<rect x="220" y="1265.2238805970151" width="20" height="20" fill="#FFFFFF" stroke-width="1.000000px" stroke="#000000" />
		<text x="230" y="1275.2238805970151" text-anchor="middle" dominant-baseline="middle" font-family="Arial" font-size="10" fill="#000000">26</text>
	</g>
	<g>
		<rect x="582.68656716417922" y="1646.1194029850747" width="20" height="20" fill="#FFFFFF" stroke-width="1.000000px" stroke="#000000" />
		<text x="592.68656716417922" y="1656.1194029850747" text-anchor="middle" dominant-baseline="middle" font-family="Arial" font-size="10" fill="#000000">0</text>
	</g>
	<g>
		<rect x="863.43283582089555" y="1387.0149253731342" width="20" height="20" fill="#FFFFFF" stroke-width="1.000000px" stroke="#000000" />
		<text x="873.43283582089555" y="1397.0149253731342" text-anchor="middle" dominant-baseline="middle" font-family="Arial" font-size="10" fill="#000000">20</text>
	</g>
	<g>
		<rect x="564.17910447761199" y="1886.1194029850747" width="20" height="20" fill="#FFFFFF" stroke-width="1.000000px" stroke="#000000" />
		<text x="574.17910447761199" y="1896.1194029850747" text-anchor="middle" dominant-baseline="middle" font-family="Arial" font-size="10" fill="#000000">15</text>
	</g>
	<g>
		<rect x="1836.4179104477612" y="600.74626865671644" width="20" height="20" fill="#FFFFFF" stroke-width="1.000000px" stroke="#000000" />
		<text x="1846.4179104477612" y="610.74626865671644" text-anchor="middle" dominant-baseline="middle" font-family="Arial" font-size="10" fill="#000000">24</text>
	</g>
	<g>
		<rect x="1775.5223880597014" y="662.53731343283584" width="20" height="20" fill="#FFFFFF" stroke-width="1.000000px" stroke="#000000" />
		<text x="1785.5223880597014" y="672.53731343283584" text-anchor="middle" dominant-baseline="middle" font-family="Arial" font-size="10" fill="#000000">3</text>
	</g>
	<g>
		<rect x="1024.6268656716418" y="540.14925373134338" width="20" height="20" fill="#FFFFFF" stroke-width="1.000000px" stroke="#000000" />
		<text x="1034.6268656716418" y="550.14925373134338" text-anchor="middle" dominant-baseline="middle" font-family="Arial" font-size="10" fill="#000000">6</text>
	</g>
	<g>
		<rect x="1164.6268656716418" y="1104.4776119402986" width="20" height="20" fill="#FFFFFF" stroke-width="1.000000px" stroke="#000000" />
		<text x="1174.6268656716418" y="1114.4776119402986" text-anchor="middle" dominant-baseline="middle" font-family="Arial" font-size="10" fill="#000000">9</text>
	</g>
	<g>
		<rect x="120" y="1283.4328358208957" width="20" height="20" fill="#FFFFFF" stroke-width="1.000000px" stroke="#000000" />
		<text x="130" y="1293.4328358208957" text-anchor="middle" dominant-baseline="middle" font-family="Arial" font-size="10" fill="#000000">21</text>
	</g>
	<g>
		<rect x="1789.1044776119402" y="440.74626865671644" width="20" height="20" fill="#FFFFFF" stroke-width="1.000000px" stroke="#000000" />
		<text x="1799.1044776119402" y="450.74626865671644" text-anchor="middle" dominant-baseline="middle" font-family="Arial" font-size="10" fill="#000000">28</text>
	</g>
	<g>
		<rect x="1998.2089552238804" y="1284.3283582089553" width="20" height="20" fill="#FFFFFF" stroke-width="1.000000px" stroke="#000000" />
		<text x="2008.2089552238804" y="1294.3283582089553" text-anchor="middle" dominant-baseline="middle" font-family="Arial" font-size="10" fill="#000000">12</text>
	</g>
	<g>
		<rect x="1465.5223880597014" y="1107.0149253731342" width="20" height="20" fill="#FFFFFF" stroke-width="1.000000px" stroke="#000000" />
		<text x="1475.5223880597014" y="1117.0149253731342" text-anchor="middle" dominant-baseline="middle" font-family="Arial" font-size="10" fill="#000000">29</text>
	</g>
	<g>
		<rect x="1385.5223880597014" y="1125.2238805970151" width="20" height="20" fill="#FFFFFF" stroke-width="1.000000px" stroke="#000000" />
		<text x="1395.5223880597014" y="1135.2238805970151" text-anchor="middle" dominant-baseline="middle" font-family="Arial" font-size="10" fill="#000000">27</text>
	</g>
	<g>
		<rect x="1325.5223880597014" y="1125.2238805970151" width="20" height="20" fill="#FFFFFF" stroke-width="1.000000px" stroke="#000000" />
		<text x="1335.5223880597014" y="1135.2238805970151" text-anchor="middle" dominant-baseline="middle" font-family="Arial" font-size="10" fill="#000000">1</text>
	</g>
	<g>
		<rect x="1264.6268656716418" y="1086.1194029850747" width="20" height="20" fill="#FFFFFF" stroke-width="1.000000px" stroke="#000000" />
		<text x="1274.6268656716418" y="1096.1194029850747" text-anchor="middle" dominant-baseline="middle" font-family="Arial" font-size="10" fill="#000000">7</text>
	</g>
	<g>
		<rect x="1343.7313432835822" y="1005.223880597015" width="20" height="20" fill="#FFFFFF" stroke-width="1.000000px" stroke="#000000" />
		<text x="1353.7313432835822" y="1015.223880597015" text-anchor="middle" dominant-baseline="middle" font-family="Arial" font-size="10" fill="#000000">14</text>
	</g>
</svg>
